<?xml version="1.0" encoding="UTF-8" standalone="no"?>
<!-- Created with Inkscape (http://www.inkscape.org/) -->

<svg
   width="200.0px"
   height="200.0px"
   viewBox="0 0 200.0 200.0"
   version="1.1"
   id="SVGRoot"
   xmlns="http://www.w3.org/2000/svg"
   xmlns:svg="http://www.w3.org/2000/svg">
  <defs
     id="defs1634" />
  <path
     d="m 26.208715,26.000624 c 0.0047,0.321768 -0.175567,1.402834 -0.398855,2.402383 -0.270372,1.210379 -0.298594,2.463571 -0.08425,3.752217 0.176968,1.064177 0.252231,3.442084 0.167485,5.284232 -0.209459,4.548945 0.712185,6.882795 3.523915,8.923265 1.832079,1.32953 5.507252,2.92551 7.446452,3.233674 1.436764,0.228311 3.286597,0.603095 4.778994,0.968186 1.436751,0.351456 13.454497,0.266112 13.999063,-0.09944 0.168227,-0.113338 1.109802,-0.30545 2.090768,-0.426846 0.981048,-0.121414 2.30545,-0.389796 2.943063,-0.596433 0.637695,-0.206631 1.159363,-0.304502 1.159363,-0.217553 0,0.08701 0.405669,-0.0098 0.901223,-0.216474 0.495665,-0.205977 1.258155,-0.455938 1.694418,-0.555395 0.436373,-0.09944 1.154526,-0.277525 1.596011,-0.3958 0.440963,-0.118211 1.083551,-0.287008 1.426905,-0.374984 1.493425,-0.382661 7.725845,-2.940561 12.218106,-5.014536 0.490552,-0.226479 1.012165,-0.383419 1.159336,-0.348754 0.146786,0.0346 0.267734,-0.09097 0.267734,-0.278996 0,-0.18809 0.842811,-0.734372 1.872925,-1.213946 2.833111,-1.319073 5.461023,-2.692118 5.743517,-3.000969 0.138815,-0.15176 0.482388,-0.312905 0.764278,-0.358054 0.281423,-0.0449 0.959195,-0.418461 1.505713,-0.829503 0.546654,-0.411051 1.636033,-1.066453 2.420872,-1.456472 0.784894,-0.390015 1.828257,-1.012445 2.318782,-1.383165 0.490551,-0.370709 1.253015,-0.796639 1.694418,-0.946496 0.631043,-0.214217 0.802733,-0.119682 0.802733,0.442146 0,0.393043 0.321775,1.370144 0.714085,2.171377 0.392831,0.801247 0.593494,1.457459 0.446048,1.458261 -0.147336,7.78e-4 0.29404,0.38596 0.980303,0.855966 1.21915,0.834343 1.55607,0.856536 14.26926,0.939597 7.16149,0.04706 17.11423,0.196625 22.11743,0.332908 22.0408,0.600447 20.95868,0.601702 21.43439,-0.02485 0.3688,-0.485626 0.30739,-0.623323 -0.35864,-0.813885 -0.44096,-0.126156 -0.65446,-0.336695 -0.4737,-0.467782 0.53101,-0.385689 2.9501,-4.704665 3.0391,-5.426568 0.041,-0.364167 -0.0792,-0.705995 -0.27567,-0.759627 -0.19654,-0.05353 -0.36474,0.03407 -0.37395,0.195023 -0.0407,0.755555 -0.68696,2.329658 -1.34829,3.307622 -0.83217,1.230593 -1.52245,1.463443 -0.96555,0.325658 0.46656,-0.953876 0.47167,-1.585705 0.008,-1.585705 -0.19681,0 -0.33818,0.131618 -0.31463,0.292501 0.10886,0.75687 -0.0742,1.292122 -0.37293,1.089912 -0.18197,-0.123017 -0.42153,0.08643 -0.53104,0.465454 -0.1094,0.379038 -0.51416,0.903788 -0.89856,1.16611 -0.67722,0.462429 -0.68343,0.430033 -0.19983,-1.066983 0.63239,-1.959665 -0.036,-1.957497 -0.95552,0.0036 -0.35091,0.750791 -0.98454,1.601427 -1.40818,1.890328 l -0.7703,0.525266 0.76384,-1.351332 c 1.24515,-2.202743 0.87643,-2.418998 -0.86959,-0.510014 -0.89841,0.98224 -1.70516,1.785887 -1.79288,1.785887 -0.0874,0 0.0951,-0.538404 0.40669,-1.196507 0.75457,-1.595299 0.46551,-2.403992 -0.33151,-0.928341 -0.57265,1.059916 -2.28282,2.335341 -2.62684,1.959151 -0.0797,-0.08662 0.0247,-0.500495 0.2287,-0.919673 0.6156,-1.25763 0.0247,-1.289587 -1.0013,-0.05474 -0.99235,1.187796 -1.45439,1.157604 -1.45439,-0.09496 0,-0.937363 -0.43074,-0.908977 -0.98749,0.06494 -0.62326,1.091295 -1.86586,1.056973 -1.60241,-0.04434 0.17537,-0.732832 0.11435,-0.775885 -0.54863,-0.387906 -0.41026,0.239985 -0.83451,0.593327 -0.94287,0.785145 -0.1127,0.198783 -3.84162,0.258755 -8.67072,0.1394 -4.66041,-0.115202 -10.3512,-0.209672 -12.64623,-0.210032 l -4.17277,-7.81e-4 0.16273,-1.213351 0.16328,-1.213348 -0.54619,1.285392 c -0.6615,1.557188 -1.40857,1.271243 -1.09914,-0.420678 0.21331,-1.166208 0.20506,-1.174091 -0.49871,-0.477298 -0.39394,0.389636 -0.7161,0.934214 -0.7161,1.210068 0,0.275856 -0.17262,0.618424 -0.3842,0.761244 -0.26416,0.178771 -0.31919,-0.330312 -0.17592,-1.634572 l 0.20864,-1.894235 -0.66876,1.560071 c -0.36779,0.858047 -0.60119,1.689701 -0.51851,1.848136 0.0827,0.158398 -0.0896,0.187338 -0.38315,0.06435 -0.40925,-0.17174 -0.45529,-0.448636 -0.19709,-1.190984 0.44198,-1.271083 0.43021,-2.586049 -0.0247,-2.281537 -0.31664,0.213727 -0.53104,-0.606352 -0.38978,-1.491572 0.0247,-0.176776 -0.11325,-0.210326 -0.3146,-0.07446 -0.20039,0.135836 -0.36576,0.501853 -0.36576,0.813284 0,0.939489 -1.44241,3.990966 -1.9964,4.223364 -0.4159,0.174225 -0.443,0.06511 -0.13964,-0.554231 0.20808,-0.424194 0.50592,-0.771277 0.66227,-0.771277 0.15641,0 0.29195,-0.219384 0.30025,-0.487521 0.008,-0.268172 0.11133,-1.313595 0.2287,-2.323245 0.1171,-1.00965 0.0778,-1.927024 -0.0866,-2.038619 -0.1652,-0.111507 -0.39593,0.562383 -0.51353,1.497696 -0.1171,0.93533 -0.56897,2.379241 -1.0037,3.208679 -0.99589,1.900112 -0.97821,1.876859 -1.22297,1.609337 -0.11242,-0.123082 0.077,-0.810481 0.422,-1.527581 0.34426,-0.717083 0.67384,-1.567073 0.73192,-1.88884 0.94991,-5.26611 1.05302,-6.289225 0.80785,-8.019268 -0.41741,-2.945061 -0.50798,-3.26592 -1.16654,-4.106498 -0.33659,-0.42971 -0.52505,-0.934391 -0.41947,-1.121536 0.10638,-0.188581 9.34281,-0.310846 20.7142,-0.274353 17.63828,0.05667 20.56763,0.146594 20.84649,0.640056 0.27711,0.491088 0.35861,0.476971 0.56026,-0.09751 0.30435,-0.866719 1.09584,-0.861124 1.54797,0.01079 0.33351,0.643845 0.38211,0.64086 0.85081,-0.05245 0.48137,-0.712564 0.5207,-0.707303 1.26909,0.171053 l 0.77231,0.906217 v -0.926549 -0.926547 l 1.12107,1.145522 c 1.04559,1.068372 1.10782,1.086423 0.92522,0.267943 -0.23173,-1.038583 -0.17125,-1.052297 1.28872,-0.293057 1.14829,0.597072 3.08617,3.486174 3.08617,4.601144 0,0.34021 0.14816,0.719016 0.33046,0.841719 0.18142,0.122723 0.27323,0.713516 0.20396,1.312935 -0.0695,0.599407 3.8e-4,1.313874 0.15531,1.5877 0.52557,0.930186 0.73494,-0.645552 0.36726,-2.766075 -0.35704,-2.059543 -0.93739,-3.329642 -2.23483,-4.892817 -0.40003,-0.481788 -0.64498,-0.96577 -0.54465,-1.075491 0.41488,-0.454045 2.64116,1.696823 3.63406,3.511578 0.95854,1.751791 1.06791,2.287204 1.07528,5.265256 0.003,1.823339 -0.0869,3.578427 -0.20396,3.900194 -0.11655,0.321767 -0.3223,0.958177 -0.45732,1.414253 -0.13497,0.456046 -0.63292,1.056126 -1.10692,1.333468 -0.9419,0.55117 -1.15216,1.727197 -0.36729,2.056375 0.27103,0.11409 0.91914,-0.277754 1.43864,-0.870571 0.99317,-1.133396 1.04199,-1.143216 6.81808,-1.374133 2.87668,-0.115071 3.72064,-0.504554 4.85004,-2.238632 1.18652,-1.821785 1.17734,-5.769744 -0.0137,-7.926138 -1.75115,-3.157994 -2.61387,-3.606215 -6.80673,-3.536313 -3.33149,0.05552 -5.34892,-0.461886 -5.34892,-1.371955 0,-0.221673 -0.16026,-0.294561 -0.35655,-0.161963 -0.19654,0.132598 -0.35658,0.06923 -0.35658,-0.140642 0,-0.209934 -0.81859,-0.678956 -1.8191,-1.042295 -1.64299,-0.596623 -4.39825,-0.661876 -28.44939,-0.673782 -14.64667,-0.0075 -27.05766,0.08594 -27.57999,0.207187 -1.57652,0.365844 -2.40523,1.021059 -3.340755,2.641334 -0.490056,0.848819 -0.981928,1.543307 -1.092924,1.543307 -0.110227,0 -1.388834,-0.624226 -2.839543,-1.387168 -1.450846,-0.762935 -2.720712,-1.381347 -2.82184,-1.374241 -0.101431,0.0075 -1.911464,-0.935097 -4.022931,-2.093797 -2.111521,-1.158696 -4.280576,-2.22664 -4.820111,-2.373214 -0.539755,-0.146561 -0.981076,-0.433333 -0.981076,-0.637253 0,-0.203917 -0.147336,-0.27105 -0.327877,-0.149145 -0.180047,0.121906 -0.545391,6.25e-4 -0.811145,-0.26948 C 81.268884,14.505012 80.740729,14.286704 79.671031,14.130356 79.136251,14.052106 78.604633,13.825887 75.9254,12.535959 75.140713,12.158112 74.177587,11.820223 73.78514,11.78512 73.392776,11.749967 71.867684,11.30858 70.396139,10.804177 68.924676,10.299784 67.319347,9.8339174 66.82896,9.7689819 66.338381,9.7040398 65.535703,9.5672232 65.045233,9.4649051 64.555176,9.3626524 63.671821,9.190618 63.083274,9.0827311 62.49459,8.9748867 61.531381,8.7939579 60.94289,8.6806559 58.142628,8.1418165 57.205423,8.0411497 54.982932,8.0406134 53.667051,8.0402831 52.492102,7.8661592 52.371952,7.6536815 52.252104,7.4411973 52.010402,7.363862 51.835825,7.4819415 c -0.174824,0.1181121 -1.32748,0.2918469 -2.561638,0.3862288 -2.473979,0.1891691 -4.622912,0.4628055 -5.989673,0.7627523 -0.490497,0.1076155 -1.420992,0.2904735 -2.067785,0.4061855 -2.341141,0.4190563 -5.315735,1.2724759 -6.163004,1.7682399 -0.476256,0.278669 -0.906724,0.473835 -0.956659,0.433764 -0.62184,-0.499308 -5.303312,2.49737 -6.636263,4.247922 -1.299395,1.706502 -1.893005,4.493302 -1.56192,7.332704 0.166495,1.427898 0.305961,2.859426 0.309851,3.181187 z m 0.922232,-5.954414 c 0.08205,-0.593533 0.301403,-0.976302 0.487456,-0.850581 0.186067,0.125732 0.240301,0.401912 0.120535,0.613804 -0.317874,0.562299 0.167485,2.363179 0.564525,2.094857 0.185627,-0.125405 0.281546,-0.753436 0.213115,-1.395575 -0.06834,-0.642148 0.176391,-1.812371 0.543911,-2.600505 0.767585,-1.646079 0.799111,-1.792552 0.315574,-1.465824 -0.203082,0.137241 -0.261521,-0.02126 -0.13777,-0.373901 0.118171,-0.336692 0.477586,-0.565196 0.798555,-0.507797 0.321,0.05739 0.549945,-0.09411 0.508634,-0.336695 -0.08788,-0.516126 1.047366,-1.724154 1.738214,-1.849767 0.262429,-0.04758 0.798267,-0.280402 1.190664,-0.517101 0.392411,-0.236715 0.840755,-0.429438 0.996324,-0.428412 0.155555,0.0011 0.71741,-0.171413 1.248556,-0.383253 2.14622,-0.856022 3.940338,-1.341682 4.373395,-1.183859 0.251818,0.09176 -0.652577,0.485787 -2.009939,0.875554 -1.357371,0.389748 -2.869274,0.989847 -3.359768,1.33354 -0.490475,0.34367 -1.373424,0.910929 -1.962025,1.26053 -1.120812,0.665676 -3.089987,3.451204 -2.801076,3.962291 0.0922,0.16314 0.02364,0.296687 -0.152284,0.296687 -0.175978,0 -0.343458,0.570401 -0.372155,1.267561 -0.103603,2.515358 -0.798217,4.19895 -1.745139,4.229652 -0.576029,0.01831 -0.848449,-1.949711 -0.559291,-4.041261 z m 0.08263,8.275904 c 0.180294,0.311565 0.255474,0.694295 0.1671,0.850594 -0.0884,0.156273 -0.0047,0.389368 0.185214,0.517912 0.19019,0.128543 0.515077,-0.453127 0.721833,-1.292698 0.20682,-0.839521 0.626747,-1.753975 0.933286,-2.032118 0.306568,-0.278113 0.48935,-0.790011 0.406221,-1.137493 -0.106709,-0.445933 0.08818,-0.631767 0.662154,-0.631767 h 0.813269 l -0.766641,1.177104 c -0.42162,0.647403 -0.808168,1.358211 -0.858922,1.579577 -0.05066,0.221346 -0.197447,0.929002 -0.325808,1.572533 -0.128506,0.643532 -0.532699,1.484032 -0.898224,1.867792 -0.365555,0.38374 -0.664639,0.866388 -0.664639,1.072548 0,0.20614 -0.16053,0.37482 -0.356756,0.37482 -0.197117,0 -0.354299,-1.003571 -0.351278,-2.242611 0.003,-1.515652 0.111711,-2.059014 0.333172,-1.676203 z m -0.210504,9.801611 c 0.362433,0.459506 0.578676,2.349177 0.242802,2.122266 -0.204016,-0.137896 -0.371025,-0.708379 -0.371025,-1.267748 0,-0.559362 0.05767,-0.94391 0.128149,-0.854518 z m 0.464793,-2.470124 c 0.09893,0.268107 0.09893,0.706904 0,0.975044 -0.09893,0.268107 -0.179937,0.04866 -0.179937,-0.48752 0,-0.536299 0.08095,-0.755663 0.179937,-0.487524 z m 0.12048,5.557774 c 0.19019,0.321767 0.345802,0.760535 0.345802,0.975043 0,0.214545 -0.155609,0.126745 -0.345802,-0.195022 -0.19019,-0.321768 -0.345811,-0.760535 -0.345811,-0.97505 0,-0.214545 0.15561,-0.126778 0.345811,0.195022 z m 0.750927,-4.77774 c 0.19511,-0.375359 0.246897,-0.682536 0.114982,-0.682536 -0.131942,0 -0.0569,-0.241031 0.16677,-0.535595 0.223588,-0.294561 0.303861,-0.82828 0.178343,-1.186017 -0.125593,-0.357731 -0.08824,-0.62244 0.08301,-0.588266 0.719235,0.14352 1.230771,-0.05582 1.034413,-0.403213 -0.115972,-0.205127 -0.486588,-0.267747 -0.823704,-0.139105 -1.033855,0.394613 2.77817,-3.659631 4.157377,-4.421543 0.711825,-0.393262 1.591998,-0.979745 1.955951,-1.303351 0.36392,-0.323598 0.726341,-0.539977 0.805312,-0.480869 0.07889,0.05912 1.065439,-0.188842 2.192127,-0.551023 1.126702,-0.362221 2.557664,-0.698876 3.179911,-0.748142 0.622247,-0.04921 1.2948,-0.199993 1.494555,-0.334962 0.751578,-0.507853 16.459155,-1.046202 16.459155,-0.5641 0,0.184559 -1.003259,0.349458 -2.229555,0.366383 -2.391955,0.03299 -4.776818,0.189758 -8.472338,0.556854 -1.275336,0.126712 -2.975334,0.288871 -3.77793,0.36038 -0.802541,0.07155 -1.821825,0.255844 -2.26507,0.409645 -0.443305,0.153788 -1.151139,0.336208 -1.57305,0.405267 -0.42198,0.06913 -1.168462,0.23763 -1.658975,0.37444 -0.490472,0.136882 -1.37341,0.33956 -1.962023,0.450367 -0.588612,0.110918 -1.894998,0.70518 -2.903086,1.320698 -1.008075,0.615524 -1.931124,1.040973 -2.051208,0.945443 -0.120123,-0.09555 -0.141673,-0.06072 -0.04755,0.0774 0.09365,0.138157 -0.311228,0.85067 -0.899689,1.583429 -0.588459,0.732764 -0.987891,1.477403 -0.887636,1.654771 0.100221,0.177365 -0.05676,0.539382 -0.348826,0.804438 -0.292149,0.265033 -0.531174,0.821854 -0.531174,1.237278 0,0.471618 -0.154648,0.650765 -0.4119,0.477027 -0.226529,-0.153102 -0.319617,-0.115072 -0.206847,0.08436 0.112756,0.199437 0.241922,1.498992 0.287087,2.887899 0.04755,1.476867 0.34724,3.107367 0.72096,3.927299 0.839608,1.842524 2.829619,3.719455 4.3109,4.065946 0.652231,0.152546 1.386541,0.454101 1.631795,0.67014 0.245304,0.215983 0.44592,0.277328 0.44592,0.136261 0,-0.141035 0.309537,-0.07534 0.688012,0.14607 0.750003,0.438794 2.258497,0.715374 5.535916,1.01482 1.166813,0.106635 2.210259,0.29515 2.318754,0.418893 0.298081,0.340154 -5.698678,-0.172362 -7.026565,-0.600538 -0.63766,-0.205617 -1.159386,-0.276838 -1.159386,-0.1583 0,0.118602 -0.223917,0.01243 -0.497533,-0.235898 -0.273671,-0.248258 -0.634831,-0.421813 -0.802646,-0.385633 -0.63883,0.137895 -2.623849,-0.54281 -2.623849,-0.899788 0,-0.205617 -0.200663,-0.293744 -0.44592,-0.195971 -0.245303,0.09771 -0.947826,-0.23109 -1.56126,-0.730677 -0.613454,-0.499632 -1.195604,-0.82067 -1.293687,-0.713444 -0.09808,0.107256 -0.271389,-0.07021 -0.385198,-0.394397 -0.113745,-0.324155 -0.02914,-0.709857 0.18942,-0.857131 0.256656,-0.173375 0.294606,-0.08787 0.107699,0.24283 -0.185407,0.327934 -0.148903,0.416136 0.102035,0.24659 0.262896,-0.177593 0.09593,-0.884981 -0.510068,-2.162012 -0.997118,-2.101266 -1.34792,-4.544092 -0.80308,-5.592439 z m 2.440823,0.91087 c 0.212372,-0.375683 0.380899,-0.364813 0.769649,0.04921 1.191411,1.269738 3.112075,2.647305 3.690993,2.647305 0.436455,0 0.560049,0.195807 0.404123,0.64019 -0.177572,0.505959 -0.122624,0.547564 0.262154,0.198423 0.267816,-0.242993 0.556358,-0.365844 0.641263,-0.273044 0.30299,0.33123 3.743336,0.771179 6.022812,0.770129 2.590529,-0.0012 7.02501,-0.371197 11.058551,-0.922684 1.471628,-0.201236 3.558438,-0.461076 4.637618,-0.577583 1.678283,-0.181157 1.781501,-0.15781 0.713425,0.161865 -2.828657,0.846526 -4.084861,1.111965 -6.555294,1.385186 -0.956722,0.105817 -1.918418,0.313265 -2.137058,0.46102 -0.21853,0.147804 -2.8932,0.303913 -5.943356,0.347077 -6.1367,0.08679 -7.771225,-0.223439 -11.274029,-2.139773 -2.222395,-1.215829 -2.779229,-1.883696 -2.290857,-2.747642 z m 0.64367,-19.526985 c 1.826548,-3.976133 10.585025,-6.624596 21.19316,-6.408541 4.648915,0.0947 5.958776,0.207121 8.504251,0.729843 0.686652,0.140969 1.489303,0.305777 1.7837,0.366164 0.294012,0.06036 1.096883,0.235832 1.783616,0.390015 0.686679,0.154115 1.524872,0.323501 1.862535,0.376334 0.338158,0.05301 0.725602,0.218142 0.862108,0.367358 0.136616,0.14921 0.551933,0.271311 0.923214,0.271311 0.371391,0 0.589811,0.150812 0.485961,0.335237 -0.103905,0.184362 0.167127,0.294397 0.60317,0.24453 0.43585,-0.04974 1.595379,0.151859 2.576482,0.448149 0.980966,0.29636 2.104155,0.623284 2.495915,0.72659 0.391842,0.103332 0.763288,0.35519 0.825685,0.5598 0.06295,0.204571 0.327878,0.28207 0.589427,0.172296 0.261411,-0.109839 0.583516,-0.0098 0.714964,0.223275 0.131393,0.23266 0.388791,0.321996 0.571256,0.198587 0.181971,-0.12341 0.332001,-0.01995 0.332001,0.230371 0,0.276511 -0.244644,0.34832 -0.624254,0.183218 -0.88932,-0.386877 -3.194275,-0.841004 -6.153721,-1.212514 -1.078988,-0.135476 -2.07488,-0.319838 -2.212843,-0.409701 -0.339669,-0.221248 -3.587657,-0.611342 -5.991926,-0.719683 -1.079126,-0.04866 -2.04228,-0.127628 -2.140412,-0.175533 -0.61991,-0.302965 -8.996645,0.102089 -11.772141,0.569234 -0.686678,0.115496 -1.730152,0.284031 -2.318754,0.374385 -0.588601,0.09032 -1.471545,0.262286 -1.962014,0.382066 -0.490469,0.11978 -1.373413,0.309864 -1.962014,0.422463 -0.588637,0.112488 -1.712338,0.521643 -2.497149,0.909046 -0.784822,0.387474 -2.189453,0.930633 -3.121408,1.207101 -0.931966,0.276511 -1.694478,0.684629 -1.694478,0.907012 0,0.222359 -0.09973,0.295215 -0.221801,0.161865 -0.122047,-0.133351 -0.999576,0.188417 -1.950165,0.715033 -0.950605,0.526675 -1.813958,0.957552 -1.918583,0.957552 -0.425658,0 -0.148545,-2.233461 0.434616,-3.502873 z m 1.515556,4.087901 c 0.981015,-0.543502 1.783666,-0.87886 1.783666,-0.745228 0,0.32799 -1.523395,1.620102 -1.929952,1.636946 -0.178562,0.0075 -0.467459,0.292403 -0.642024,0.63342 -0.399674,0.780842 -0.995343,0.805678 -0.995343,0.04163 0,-0.318203 0.802649,-1.023141 1.783653,-1.56665 z m -0.267459,19.81038 c 0.833861,0.453015 1.596374,0.840614 1.694479,0.861319 0.09808,0.0206 0.499428,0.153756 0.891828,0.295706 3.749839,1.356138 12.789885,1.392972 18.193348,0.07413 0.196539,-0.04813 0.918623,-0.189267 1.605329,-0.314181 1.476493,-0.268598 4.097313,-0.8646 5.350961,-1.216837 0.490551,-0.137863 1.373412,-0.335881 1.961986,-0.440256 0.588657,-0.104312 3.31767,-0.648495 6.06455,-1.209306 2.746771,-0.560807 5.355387,-1.035499 5.796817,-1.054864 0.440936,-0.01962 0.802596,-0.131748 0.802596,-0.249729 0,-0.117949 0.361193,-0.232529 0.802706,-0.254537 0.440963,-0.02224 1.163844,-0.14486 1.605302,-0.273044 2.030047,-0.589161 2.46477,-0.688092 3.299775,-0.750899 0.490606,-0.03679 0.972115,-0.176677 1.070192,-0.310584 0.317679,-0.433872 2.497151,-0.808699 2.497151,-0.429494 0,0.39548 -4.589046,2.68511 -5.061923,2.525593 -0.158881,-0.05353 -0.288432,0.07799 -0.288432,0.292501 0,0.214512 -0.120673,0.362649 -0.267734,0.329285 -0.146786,-0.03299 -1.070192,0.328959 -2.051323,0.805243 -1.732104,0.84098 -2.101956,1.011226 -4.208337,1.937082 -0.548744,0.241195 -1.311262,0.438579 -1.694418,0.438579 -0.383706,0 -0.696712,0.146266 -0.696712,0.325004 0,0.178771 -0.200388,0.343994 -0.446076,0.367194 -0.589976,0.05569 -1.383831,0.29685 -2.090521,0.634765 -0.31614,0.151107 -0.964721,0.320198 -1.441941,0.375847 -0.477275,0.05552 -1.022582,0.205879 -1.212003,0.333827 -0.423068,0.285601 -3.091415,0.881371 -3.46036,0.772477 -0.146786,-0.04326 -0.267733,0.06733 -0.267733,0.246067 0,0.178771 -0.200388,0.347996 -0.445554,0.37601 -2.460235,0.281547 -3.797941,0.484653 -4.548365,0.690574 -1.34914,0.370222 -11.631154,0.468106 -13.511199,0.128609 -0.907457,-0.16386 -2.292033,-0.414838 -3.076838,-0.557642 -0.784812,-0.142866 -1.520708,-0.32252 -1.635314,-0.399211 -0.11457,-0.07668 -0.756729,-0.24453 -1.42694,-0.373034 -2.310225,-0.442797 -5.320952,-2.896757 -5.320952,-4.33698 0,-0.300513 0.531729,-0.173964 1.516106,0.360811 z m -0.660054,-8.662378 c 0.387604,-0.351731 0.786755,-0.276576 1.783658,0.335612 0.706388,0.433817 1.284341,0.682422 1.284341,0.552574 0,-0.129852 0.20069,-0.06327 0.445919,0.147836 0.39737,0.342101 1.976748,0.911181 2.943038,1.060299 0.19621,0.03041 0.91859,0.186684 1.605294,0.347617 2.347935,0.550117 9.199083,0.826913 12.185165,0.492278 0.717603,-0.08041 3.205848,-0.26657 5.52933,-0.413592 4.678191,-0.296131 6.772422,-0.445665 11.002475,-0.785688 6.620579,-0.532189 7.882225,-0.659993 8.524346,-0.86356 0.566336,-0.179555 0.600449,-0.125731 0.210008,0.331339 -0.256463,0.300152 -0.721231,0.560872 -1.032835,0.579371 -0.671341,0.04002 -2.701828,0.398507 -3.95564,0.698719 -0.490085,0.117524 -1.614208,0.319217 -2.497152,0.448421 -0.882833,0.129132 -1.765777,0.261043 -1.962041,0.293155 -0.196265,0.03237 -0.436868,0.16932 -0.535385,0.304959 -0.09758,0.135673 -0.900701,0.36487 -1.783617,0.509423 -0.882889,0.144501 -2.16713,0.354703 -2.853891,0.467079 -0.686679,0.11239 -1.810391,0.265164 -2.497042,0.339504 -0.686706,0.07436 -1.248562,0.161538 -1.248562,0.193649 0,0.11239 -2.819092,0.572841 -6.064495,0.990684 -5.746266,0.73983 -14.292564,0.864335 -15.339479,0.223472 -0.196209,-0.120074 -0.557402,-0.267192 -0.802643,-0.326869 -0.245303,-0.05961 -0.649311,-0.1566 -0.897905,-0.215493 -0.942584,-0.223242 -2.978615,-1.83927 -3.744878,-2.972418 -0.920923,-1.361841 -1.001299,-2.100291 -0.29808,-2.738374 z m 1.284335,-8.612877 c 0.784812,-0.679583 1.426924,-1.124168 1.426924,-0.987966 0,0.136162 0.536899,-0.200026 1.193064,-0.747266 0.656172,-0.547194 1.466792,-0.994902 1.801377,-0.994902 0.334606,0 1.081935,-0.26778 1.6608,-0.595048 0.578862,-0.327287 1.052479,-0.504177 1.052479,-0.393154 0,0.111016 0.601988,-0.05137 1.337747,-0.360975 0.735758,-0.309538 1.819365,-0.649068 2.407939,-0.754456 0.588601,-0.105458 2.033373,-0.37601 3.210603,-0.601388 6.181485,-1.18344 13.107813,-1.248595 20.498991,-0.192897 0.890063,0.127137 2.099977,0.291389 2.688633,0.364866 0.588602,0.07351 1.5517,0.238382 2.140384,0.366331 2.520874,0.547907 2.894712,0.628238 3.670644,0.788801 0.449127,0.093 2.054512,0.543849 3.567316,1.001972 1.51275,0.4581 3.028028,0.89485 3.367286,0.970488 0.33868,0.0757 0.901085,0.316993 1.248617,0.536407 0.436867,0.275857 -1.953741,0.333611 -7.751492,0.187207 -16.680708,-0.42111 -31.103933,-0.230796 -34.311019,0.452695 -0.454927,0.09686 -1.388948,0.278505 -2.075649,0.403481 -1.944524,0.353889 -5.569911,1.654565 -6.916323,2.48136 -2.148955,1.319629 -2.311406,-0.113077 -0.218282,-1.925562 z m 1.516115,6.922182 c 0.637653,0.3421 1.257597,0.782464 1.377629,0.978477 0.120068,0.196036 0.280568,0.323239 0.356756,0.282789 0.07612,-0.04055 1.02139,0.02649 2.100508,0.148491 4.046369,0.458047 7.083029,0.681993 11.335182,0.835934 2.408365,0.08718 4.524257,0.256826 4.702023,0.376926 0.178122,0.120074 0.410121,0.06393 0.51738,-0.125045 0.219904,-0.389368 6.210154,-0.494171 6.422252,-0.112389 0.288459,0.519157 -18.329332,0.855162 -20.479664,0.36963 -0.490475,-0.11082 -1.614208,-0.335832 -2.497124,-0.500123 -0.882908,-0.16435 -2.045069,-0.544797 -2.582573,-0.845551 -0.537485,-0.300775 -1.057531,-0.548061 -1.155634,-0.549575 -0.582831,-0.0085 -1.256044,-0.528023 -1.256044,-0.968304 0,-0.402239 0.251049,-0.378715 1.159386,0.108694 z m 2.5233,-2.198721 c 2.118933,-0.614573 4.524475,-1.212622 5.77075,-1.434648 0.588574,-0.104803 1.47149,-0.298093 1.962014,-0.429386 2.183568,-0.584482 12.094713,-0.95716 26.560545,-0.998718 14.913612,-0.04271 25.522376,0.642772 25.522376,1.649463 0,0.176776 -0.682226,0.445341 -1.516131,0.596728 -0.833822,0.151434 -1.756899,0.321604 -2.051186,0.378332 -2.468509,0.475352 -3.954485,0.70746 -5.172673,0.807927 -0.784783,0.06475 -1.426904,0.146986 -1.426904,0.182793 0,0.03571 -1.123711,0.109283 -2.497097,0.163434 -3.020908,0.11893 -8.61621,0.547747 -11.05877,0.847527 -0.980994,0.120434 -2.907329,0.292076 -4.280741,0.381579 -1.373358,0.08943 -4.102344,0.29188 -6.064413,0.449771 -5.884091,0.473623 -20.463118,0.186586 -23.36601,-0.460045 -0.294295,-0.06553 -1.207426,-0.252117 -2.02917,-0.414567 -2.055224,-0.406293 -2.213888,-1.18035 -0.352562,-1.7202 z m 0.06155,-9.331975 c 0.491346,-0.244759 0.893342,-0.293711 0.893342,-0.108858 0,0.323828 -1.46335,0.907345 -1.680407,0.670042 -0.05836,-0.06386 0.295727,-0.316405 0.787065,-0.561203 z m 1.987273,-0.672788 c 0.209267,-0.141362 0.475384,-0.153265 0.59146,-0.02649 0.116083,0.126876 0.466533,0.02126 0.778916,-0.234655 0.473184,-0.387742 0.494463,-0.375143 0.127599,0.07534 -0.24217,0.297308 -0.763898,0.566687 -1.159372,0.598543 -0.809165,0.0652 -0.893578,-0.03787 -0.338595,-0.412781 z m 2.725555,-0.738924 c 0.508436,-0.211666 0.549366,-0.166835 0.199701,0.21837 -0.241977,0.26657 -0.529615,0.386393 -0.639474,0.266276 -0.109787,-0.120041 0.08824,-0.338153 0.440032,-0.484652 z m 1.643417,-0.571245 c 0.453416,-0.265294 1.456482,-0.55567 2.229033,-0.645284 0.772579,-0.0896 1.869985,-0.278571 2.43874,-0.419864 0.6999,-0.173931 0.957024,-0.120663 0.795641,0.164873 -0.130843,0.231941 -0.51617,0.427656 -0.855703,0.434795 -0.796851,0.01733 -3.061261,0.311663 -3.292738,0.428788 -0.09786,0.04974 -0.315617,0.06327 -0.483459,0.03041 -0.167677,-0.03237 -0.532884,0.146822 -0.811283,0.399423 -0.278563,0.252541 -0.582306,0.37601 -0.675353,0.274287 -0.09318,-0.101762 0.201762,-0.402075 0.655122,-0.667337 z m 2.831077,31.000345 c 0.441485,0.05353 1.525036,0.132697 2.407952,0.175959 1.409835,0.06913 1.476191,0.108858 0.544731,0.327016 -1.263076,0.295803 -3.755307,0.0858 -3.755307,-0.316471 0,-0.156109 0.361138,-0.240115 0.802624,-0.186553 z m 3.819326,-32.299294 c 0.877968,-0.269579 1.386085,-0.108303 0.997486,0.316568 -0.11435,0.124587 -0.582169,0.164873 -1.040505,0.08943 l -0.833245,-0.13698 z m 1.998597,-7.3203269 c 0.305749,0 0.45501,0.1783455 0.332275,0.3963952 -0.123146,0.2180432 -0.373672,0.295444 -0.556193,0.171969 -0.494839,-0.3343144 -0.402562,-0.5683675 0.224028,-0.5683675 z m 0.04783,6.9905079 c 0.354871,-0.01668 0.926292,-0.08865 1.269591,-0.160491 0.343298,-0.07194 0.624336,0.0098 0.624336,0.180569 0,0.431927 -2.129582,0.734552 -2.355534,0.33475 -0.10143,-0.178738 0.106654,-0.338425 0.461772,-0.354867 z m 1.537159,32.463017 c 0.490222,0 0.691187,0.08849 0.446324,0.19669 -0.245744,0.10827 -0.646574,0.10827 -0.891795,0 -0.245193,-0.108204 -0.04316,-0.19669 0.446323,-0.19669 z M 57.117901,9.7272633 c 1.60805,0.07776 3.037126,0.2654581 3.175969,0.4171077 0.138814,0.151629 -1.103178,0.166933 -2.759718,0.03407 C 53.629365,9.8649497 53.333347,9.5443464 57.118231,9.7273745 Z M 55.389562,15.96533 c 0.378731,0.03139 0.610098,0.195774 0.514109,0.365735 -0.244368,0.432467 -1.202822,0.387256 -1.202822,-0.05667 0,-0.20117 0.31034,-0.340206 0.688741,-0.309047 z m 1.429489,0.104803 c 0.440935,-0.298125 2.519279,-0.118341 2.519279,0.217945 0,0.144109 -0.642093,0.249076 -1.426904,0.233183 -1.502112,-0.03041 -1.63433,-0.08495 -1.092375,-0.45118 z m 1.34455,31.991667 c 0.508996,-0.211667 0.549404,-0.166835 0.199563,0.21837 -0.242719,0.26657 -0.529914,0.386392 -0.639757,0.266276 -0.109402,-0.120042 0.08824,-0.338154 0.440469,-0.484653 z m 1.426904,-0.390016 c 0.508997,-0.211666 0.549349,-0.166835 0.199564,0.218371 -0.24272,0.266569 -0.529942,0.386336 -0.63973,0.266275 -0.109402,-0.120041 0.08796,-0.338153 0.439919,-0.484652 z M 60.76529,16.340656 c 0.686651,0 0.967661,0.08018 0.624281,0.178346 -0.343216,0.0981 -0.905237,0.0981 -1.24859,0 -0.343243,-0.0981 -0.06295,-0.178346 0.624309,-0.178346 z m -0.785636,7.953659 c 0.155857,-0.105817 0.51793,-0.03074 0.802651,0.166018 0.404679,0.279748 0.342253,0.359624 -0.284282,0.364274 -0.825273,0.0059 -1.018789,-0.191981 -0.518039,-0.530295 z m 2.79875,-13.747797 c 1.009114,0.130701 2.213063,0.418569 2.675494,0.639535 0.787065,0.376171 0.775988,0.387743 -0.173449,0.181322 -0.55787,-0.121317 -1.681554,-0.320198 -2.497179,-0.441934 -2.163117,-0.32301 -2.167433,-0.65906 -0.0027,-0.378874 z m -1.431138,36.631458 c 0.124246,0.13541 0.515181,0.07658 0.870217,-0.131029 0.421529,-0.246328 0.721644,-0.241521 0.865956,0.01406 0.121772,0.215068 -0.01374,0.391098 -0.305887,0.391098 -0.289614,0 -0.780963,0.106537 -1.091275,0.236748 -0.332496,0.13953 -0.564248,0.03237 -0.564248,-0.259998 0,-0.273208 0.101981,-0.38596 0.225677,-0.250448 z m 1.55838,-13.705389 c 0.490607,0 0.69116,0.08849 0.445609,0.196756 -0.245468,0.108204 -0.646574,0.108204 -0.89185,0 -0.245468,-0.10827 -0.04068,-0.196756 0.446049,-0.196756 z m 0.251516,-9.201953 c 0.507979,-0.211667 0.549403,-0.166835 0.199563,0.21837 -0.241895,0.26657 -0.529942,0.386393 -0.639647,0.266276 -0.109402,-0.120042 0.08796,-0.338154 0.439919,-0.484653 z m 1.026156,22.431823 c 0.415894,0.01897 0.49976,0.111147 0.215781,0.235603 -0.257288,0.112651 -0.565209,0.09885 -0.683737,-0.03074 -0.118474,-0.12959 0.09236,-0.221771 0.468561,-0.204865 z m 0.348356,-13.681459 c 0.305392,0 0.456797,0.1755 0.335574,0.390015 -0.121222,0.214544 -0.371886,0.390016 -0.55622,0.390016 -0.184445,0 -0.335574,-0.175501 -0.335574,-0.390016 0,-0.214544 0.250141,-0.390015 0.55622,-0.390015 z m 0.157507,-8.775435 c 0.196264,0.132598 0.356547,0.318465 0.356547,0.413 0,0.0946 -0.160255,0.172035 -0.356547,0.172035 -0.19654,0 -0.356575,-0.185867 -0.356575,-0.413053 0,-0.227134 0.160255,-0.304567 0.356575,-0.171969 z m 1.605521,21.74791 c 0.686569,-0.230371 1.248315,-0.28171 1.248315,-0.11409 0,0.307935 -2.151242,0.910432 -2.375434,0.665316 -0.06652,-0.07279 0.440413,-0.320852 1.127119,-0.551226 z M 65.780539,33.020998 c 0.208084,0 0.278838,0.1755 0.157506,0.390015 -0.121222,0.214544 -0.291676,0.390016 -0.378043,0.390016 -0.08631,0 -0.157232,-0.175501 -0.157232,-0.390016 0,-0.214544 0.170426,-0.390015 0.377521,-0.390015 z m 2.32744,-8.549639 c 0.415867,0.01831 0.500282,0.11118 0.215506,0.235603 -0.257288,0.112652 -0.565154,0.09885 -0.683655,-0.03074 -0.118473,-0.129589 0.09264,-0.221771 0.468094,-0.204865 z m 2.669529,20.039168 c 0.210009,-0.141427 0.456851,-0.17344 0.550476,-0.07116 0.09318,0.102253 -0.07697,0.28982 -0.380078,0.416839 -0.628569,0.263758 -0.739181,0.03895 -0.170426,-0.345615 z m 1.58158,-31.528341 c 1.180941,0.274287 2.072708,0.936549 1.230749,0.914048 -0.284308,-0.0075 -0.91865,-0.272292 -1.409092,-0.588196 l -0.891849,-0.574394 z m -0.203687,4.543235 c 0.378043,0.03139 0.614496,0.188155 0.5234,0.348755 -0.09071,0.160622 -0.401023,0.193158 -0.688658,0.0723 -0.726371,-0.304665 -0.654243,-0.488547 0.164928,-0.42111 z m 6.959891,-0.105196 c 0.283429,0 0.607266,0.164939 0.721259,0.366383 0.1138,0.201563 -0.117649,0.339668 -0.514164,0.30702 -0.814636,-0.067 -1.001115,-0.673439 -0.20726,-0.673439 z m 1.293368,22.800093 c 0.210008,-0.141362 0.457318,-0.173441 0.550475,-0.07115 0.09319,0.102253 -0.07779,0.289819 -0.380572,0.416839 -0.628596,0.263758 -0.739153,0.03895 -0.170426,-0.345615 z m 5.43183,-19.069824 c 0.351929,0.146496 0.549843,0.364542 0.440441,0.484597 -0.109952,0.120041 -0.39745,2.55e-4 -0.639674,-0.266276 -0.349896,-0.385202 -0.308994,-0.429981 0.199563,-0.21837 z m 13.808015,10.505431 c 0.19654,-0.132598 0.356545,0.09313 0.356545,0.501582 0,0.95678 1.09138,2.033557 2.06116,2.033557 0.443,0 1.14447,-0.556406 1.69247,-1.341849 0.55938,-0.801754 1.13902,-1.25675 1.44018,-1.130408 0.81565,0.342156 1.39002,-2.054547 1.26346,-5.272342 -0.0308,-0.648845 -0.19379,-0.853226 -0.57123,-0.694779 -0.37752,0.158301 -0.53371,-0.03074 -0.52994,-0.640801 0.003,-0.701692 0.0706,-0.754688 0.35146,-0.280238 0.29564,0.499956 0.34682,0.485787 0.35144,-0.09751 0.003,-0.375359 -0.14267,-0.682532 -0.32384,-0.682532 -0.18087,0 -0.8109,-0.526509 -1.39944,-1.170057 -1.33859,-1.463538 -1.97642,-1.469349 -3.29299,-0.02976 -0.57348,0.627038 -1.04273,0.966516 -1.04273,0.754404 0,-0.811321 0.77384,-1.908554 1.72553,-2.446596 1.46017,-0.825526 3.69478,0.328422 4.60027,2.375422 0.74654,1.688098 0.78489,5.362924 0.0863,8.317217 -0.2287,0.965299 -0.4507,1.980805 -0.49366,2.256652 -0.041,0.275857 -0.60292,1.109332 -1.24372,1.852174 -0.95167,1.103162 -1.33969,1.305362 -2.1176,1.103623 -1.28204,-0.332477 -2.15743,-1.223292 -2.765487,-2.814536 -0.596655,-1.561419 -0.63709,-2.263111 -0.14816,-2.592923 z m 1.711535,-3.191046 c 0.48803,-0.348215 0.51964,-0.533218 0.16163,-0.941758 -0.73302,-0.835697 -0.5185,-1.022521 0.88792,-0.772602 1.50426,0.267322 2.17739,1.590244 0.80922,1.590244 -0.41946,0 -1.08729,0.189758 -1.48361,0.421649 -0.89952,0.526348 -1.1976,0.289755 -0.37444,-0.297471 z m 4.37907,-0.301428 c 0.2397,0.161963 0.008,2.127422 -0.25152,2.127422 -0.0789,0 -0.10692,-0.514396 -0.0629,-1.143079 0.041,-0.628679 0.18527,-1.071642 0.31512,-0.984343 z m 4.07617,7.822751 c 0.282,-0.406996 0.43484,-0.877519 0.33915,-1.045607 -0.0948,-0.168077 0.0138,-0.432898 0.24602,-0.588553 0.29978,-0.202641 0.34429,-0.01668 0.15861,0.655588 -0.14322,0.516182 -0.27568,1.150358 -0.29404,1.40926 -0.0308,0.49455 -0.99315,1.074641 -0.97355,0.589576 0.008,-0.154114 0.2419,-0.613267 0.52337,-1.020264 z m 53.95808,-9.761171 c 0.34478,-0.376386 4.46092,-0.24574 5.88554,0.186847 1.49546,0.454046 2.76231,1.720024 2.76231,2.760363 0,0.751775 -1.36577,1.986001 -1.84173,1.664368 -0.16438,-0.110918 -0.29874,-0.05726 -0.29874,0.119453 0,0.176677 -0.60199,0.317385 -1.33776,0.312807 -0.73575,-0.0052 -2.10025,0.093 -3.03221,0.216964 l -1.69447,0.225303 v -1.395238 c 0,-0.767376 -0.14569,-1.951267 -0.32381,-2.63086 -0.17867,-0.679597 -0.23172,-1.336594 -0.11847,-1.459991 z m -0.0305,7.283497 c 0.26388,-0.71489 0.99086,-0.59529 1.71753,0.28256 0.62403,0.753848 0.61013,0.768972 -0.65817,0.716845 -1.31036,-0.05409 -1.38301,-0.122429 -1.05936,-0.999415 z m 3.04248,-0.516182 c 0.25647,-0.0157 1.07006,-0.08567 1.80731,-0.155259 0.94691,-0.08943 1.4522,0.06203 1.72139,0.516181 0.35143,0.593053 0.36677,0.592284 0.19764,-0.0098 -0.12892,-0.458427 0.12067,-0.768452 0.83747,-1.041833 1.23878,-0.472105 1.71674,0.280075 0.75194,1.183296 -1.03971,0.973262 -2.03761,1.066931 -2.67637,0.251267 -0.33714,-0.430573 -0.76857,-0.624873 -1.01615,-0.457669 -0.61252,0.41392 -1.6887,0.45264 -1.90578,0.06864 -0.10115,-0.179327 0.0247,-0.338965 0.28288,-0.354703 z m 0.13964,1.229488 c 0.41587,0.01897 0.50028,0.11118 0.21606,0.235636 -0.25729,0.112651 -0.56529,0.09885 -0.68382,-0.03074 -0.11848,-0.129622 0.0926,-0.221836 0.46859,-0.204832 z M 109.28301,25.99086 c 0,0.43436 0.2232,0.789776 0.49566,0.789776 0.66103,0 0.3591,-2.663136 -0.40866,-3.60768 -0.30542,-0.375415 -0.44407,-0.682526 -0.30955,-0.682526 0.13552,0 0.0748,-0.351028 -0.13579,-0.780044 -0.77906,-1.591399 -0.99353,-0.709556 -0.32999,1.35533 0.37755,1.174445 0.68659,2.490758 0.68659,2.925144 z m 8.59059,-3.664221 c 2.14233,0.01798 3.89511,-0.11324 3.89511,-0.291684 0,-0.36703 -0.26609,-0.394018 -3.74574,-0.379146 -4.24314,0.01798 -4.58622,0.04542 -4.31117,0.346267 0.14623,0.160458 2.0196,0.306463 4.1618,0.324579 z m 3.09243,8.738235 c 1.42248,0.0036 2.5863,0.1463 2.5863,0.317647 0,0.171413 -0.56101,0.240116 -1.24672,0.152545 -0.68586,-0.08757 -1.52864,-0.03041 -1.87285,0.12632 -0.52241,0.238219 -0.45886,0.337938 0.38211,0.601679 1.6853,0.528513 5.71125,0.559725 5.86799,0.04542 0.13194,-0.434575 -0.75881,-0.632835 -2.14946,-0.478164 -0.34327,0.03839 -0.62425,-0.135509 -0.62425,-0.386069 0,-0.296196 0.4988,-0.403478 1.4269,-0.306693 0.78476,0.08178 1.42688,0.05029 1.42688,-0.0704 0,-0.120531 0.32125,-0.219285 0.71356,-0.219285 0.39237,0 0.71343,0.107125 0.71343,0.238153 0,0.131029 1.20397,0.272129 2.67549,0.313658 1.62344,0.04542 2.67552,-0.08067 2.67552,-0.321702 0,-0.218468 -0.68222,-0.413324 -1.51621,-0.432954 -0.8338,-0.01995 -2.72011,-0.08662 -4.19152,-0.148948 -3.32264,-0.140544 -8.8562,-0.267518 -9.81018,-0.225139 -0.59333,0.02649 -0.62334,0.09529 -0.17812,0.409809 0.29404,0.207939 1.69895,0.380768 3.12132,0.384067 z m -2.76466,5.076221 c 0.19653,0 0.35654,-0.361409 0.35654,-0.803058 0,-0.441662 -0.16025,-0.694576 -0.35654,-0.562007 -0.19654,0.132598 -0.35652,0.493952 -0.35652,0.803061 0,0.309113 0.16025,0.562004 0.35652,0.562004 z m 6.59957,-13.555214 c 0.59798,0.124979 0.89182,0.01079 0.89182,-0.344589 0,-0.306366 -0.37702,-0.530942 -0.89182,-0.530942 -0.49058,0 -0.89185,0.15503 -0.89185,0.344588 0,0.189496 0.40158,0.428412 0.89185,0.530943 z m 11.23706,8.874983 c 0.19654,0 0.35658,-0.175501 0.35658,-0.390016 0,-0.214511 -0.16026,-0.390015 -0.35658,-0.390015 -0.19626,0 -0.35655,0.1755 -0.35655,0.390015 0,0.214545 0.16026,0.390016 0.35655,0.390016 z m 4.74312,-2.406111 c 0.25481,0.230764 0.77607,0.43025 1.15942,0.443392 0.38417,0.01341 2.66348,0.09519 5.06701,0.182367 2.52961,0.09176 4.36991,0.0075 4.36991,-0.200614 0,-0.19754 -0.12067,-0.360651 -0.26774,-0.362544 -0.74715,-0.0098 -8.55997,-0.302409 -9.10805,-0.341397 -0.57216,-0.04055 -0.58648,-0.147739 -0.14349,-1.071185 0.48907,-1.020905 0.51199,-1.025778 4.55972,-0.982342 2.23742,0.02387 4.62984,0.06412 5.31663,0.08894 2.47857,0.09005 3.40884,-0.0291 2.91282,-0.372655 -0.44503,-0.308524 -2.45495,-0.440743 -8.97732,-0.590718 -3.30593,-0.07603 -5.3509,0.657403 -5.3509,1.919048 0,0.477458 0.20891,1.056918 0.46243,1.287665 z m 12.42471,0.298452 c 1.68922,-0.295313 2.80914,-0.865413 2.80914,-1.429942 0,-0.245413 -0.27626,-0.228442 -0.74474,0.04542 -0.72079,0.421761 -2.17466,0.832119 -3.09009,0.872219 -0.24547,0.01079 -0.44611,0.188254 -0.44611,0.394342 0,0.220855 0.60482,0.269087 1.47166,0.117621 z m 5.3274,-1.012475 c 0.18444,0 0.3356,-0.351027 0.3356,-0.780044 0,-0.860401 -0.56142,-1.062163 -0.81395,-0.292501 -0.19379,0.589946 0.0247,1.072555 0.47829,1.072555 z"
     style="fill:#f0f8ff;stroke-width:0.373002"
     id="path505" />
  <text
     xml:space="preserve"
     style="font-style:normal;font-variant:normal;font-weight:normal;font-stretch:normal;font-size:38.0758px;font-family:C059;-inkscape-font-specification:C059;fill:#f0f8ff;stroke-width:0.793245"
     x="36.762913"
     y="79.444489"
     id="text586"
     transform="scale(0.91685036,1.0906905)"><tspan
       id="tspan584"
       style="font-style:normal;font-variant:normal;font-weight:normal;font-stretch:normal;font-size:38.0758px;font-family:C059;-inkscape-font-specification:C059;stroke-width:0.793245"
       x="36.762913"
       y="79.444489">Auberge</tspan></text>
  <text
     xml:space="preserve"
     style="font-style:normal;font-variant:normal;font-weight:normal;font-stretch:normal;font-size:38.0758px;font-family:C059;-inkscape-font-specification:C059;fill:#f0f8ff;stroke-width:0.793245"
     x="82.396957"
     y="116.23849"
     id="text590"
     transform="scale(0.91685036,1.0906905)"><tspan
       id="tspan588"
       style="font-style:normal;font-variant:normal;font-weight:normal;font-stretch:normal;font-size:38.0758px;font-family:C059;-inkscape-font-specification:C059;stroke-width:0.793245"
       x="82.396957"
       y="116.23849">Du</tspan></text>
  <text
     xml:space="preserve"
     style="font-style:normal;font-variant:normal;font-weight:normal;font-stretch:normal;font-size:38.0758px;font-family:C059;-inkscape-font-specification:C059;fill:#f0f8ff;stroke-width:0.793245"
     x="32.765156"
     y="152.65965"
     id="text594"
     transform="scale(0.91685036,1.0906905)"><tspan
       id="tspan592"
       style="font-style:normal;font-variant:normal;font-weight:normal;font-stretch:normal;font-size:38.0758px;font-family:C059;-inkscape-font-specification:C059;stroke-width:0.793245"
       x="32.765156"
       y="152.65965">Saulnois</tspan></text>
  <path
     style="fill:#f0f8ff;stroke:#f0f8ff;stroke-width:1.05681;stroke-opacity:1"
     d="M 25.455087,176.06284 174.54491,176.2977"
     id="path776" />
  <text
     xml:space="preserve"
     style="font-style:normal;font-variant:normal;font-weight:normal;font-stretch:normal;font-size:10.5766px;font-family:FreeMono;-inkscape-font-specification:FreeMono;letter-spacing:0.793245px;fill:#f0f8ff;stroke:#f0f8ff;stroke-width:0.793245;stroke-opacity:1"
     x="48.613178"
     y="177.19588"
     id="text1457"
     transform="scale(0.91685036,1.0906905)"><tspan
       id="tspan1455"
       style="font-style:normal;font-variant:normal;font-weight:normal;font-stretch:normal;font-size:10.5766px;font-family:FreeMono;-inkscape-font-specification:FreeMono;stroke-width:0.793245"
       x="48.613178"
       y="177.19588">RESTAURANT ET BAR</tspan></text>
</svg>
