<?xml version="1.0" encoding="UTF-8" standalone="no"?>
<!-- Created with Inkscape (http://www.inkscape.org/) -->

<svg
   width="75%"
   height="75%"
   viewBox="0 0 52.916664 13.229167"
   version="1.1"
   id="svg58"
   xmlns="http://www.w3.org/2000/svg"
   xmlns:svg="http://www.w3.org/2000/svg">
  <defs
     id="defs55" />
  <g
     id="layer1">
    <path
       d="M 4.9028194,5.6045447 C 4.9040594,5.6896787 4.8563674,5.9757112 4.797289,6.2401752 4.725753,6.5604213 4.718286,6.891995 4.774998,7.2329492 4.821821,7.5145127 4.841734,8.1436673 4.819312,8.6310689 4.763893,9.834644 5.0077443,10.452142 5.7516812,10.992016 c 0.4847375,0.351772 1.4571268,0.774041 1.9702068,0.855576 0.380144,0.06041 0.869579,0.159569 1.264442,0.256166 0.38014,0.09299 3.559836,0.07041 3.703919,-0.02631 0.04451,-0.02999 0.293635,-0.08082 0.553182,-0.112936 0.259569,-0.03212 0.609984,-0.103134 0.778685,-0.157806 0.168724,-0.05467 0.306749,-0.08057 0.306749,-0.05756 0,0.02302 0.107333,-0.0026 0.238448,-0.05728 0.131145,-0.0545 0.332887,-0.120634 0.448315,-0.146949 0.115457,-0.02631 0.305468,-0.07343 0.422278,-0.104722 0.116671,-0.03128 0.286689,-0.07594 0.377535,-0.09921 0.395135,-0.101245 2.04413,-0.778023 3.232707,-1.326762 0.129792,-0.059923 0.267802,-0.1014467 0.306741,-0.092274 0.03884,0.00915 0.07084,-0.024069 0.07084,-0.073818 0,-0.049766 0.222994,-0.1943026 0.495545,-0.3211899 0.749594,-0.3490047 1.444896,-0.7122895 1.519639,-0.7940063 0.03673,-0.040153 0.127632,-0.08279 0.202215,-0.094735 0.07446,-0.01188 0.253787,-0.1107178 0.398387,-0.2194726 0.144635,-0.1087573 0.432867,-0.2821657 0.640522,-0.3853582 0.20767,-0.1031915 0.483726,-0.2678761 0.613511,-0.3659624 0.129792,-0.098083 0.331527,-0.2107774 0.448315,-0.2504271 0.166963,-0.056678 0.21239,-0.031666 0.21239,0.1169845 0,0.1039926 0.08514,0.3625172 0.188935,0.5745101 0.103936,0.2119966 0.157028,0.3856194 0.118016,0.3858316 -0.03898,2.058e-4 0.0778,0.1021185 0.259372,0.2264743 0.322567,0.2207533 0.41171,0.2266251 3.775409,0.2486017 1.89481,0.012451 4.52814,0.052024 5.851903,0.088082 5.831628,0.1588683 5.545317,0.1592003 5.671182,-0.00657 0.09758,-0.1284885 0.08133,-0.1649209 -0.09489,-0.2153404 -0.116671,-0.033379 -0.173159,-0.089084 -0.125333,-0.1237673 0.140496,-0.1020469 0.780547,-1.2447759 0.804095,-1.4357794 0.01085,-0.096353 -0.02096,-0.1867945 -0.07294,-0.2009847 -0.052,-0.014163 -0.0965,0.00901 -0.09894,0.0516 -0.01077,0.1999072 -0.181758,0.6163886 -0.356735,0.8751416 -0.220178,0.3255944 -0.402815,0.3872026 -0.255468,0.086164 0.123444,-0.2523797 0.124796,-0.4195511 0.0021,-0.4195511 -0.05207,0 -0.08948,0.034824 -0.08325,0.077391 0.0288,0.2002551 -0.01963,0.3418739 -0.09867,0.2883725 -0.04815,-0.032548 -0.11153,0.022868 -0.140505,0.1231514 -0.02895,0.1002871 -0.136038,0.2391272 -0.237744,0.3085332 -0.179181,0.122351 -0.180824,0.1137796 -0.05287,-0.2823059 0.167319,-0.5184947 -0.0095,-0.5179211 -0.252815,9.525e-4 -0.09284,0.1986468 -0.260493,0.4237109 -0.372581,0.5001493 l -0.203809,0.1389766 0.2021,-0.3575399 c 0.329464,-0.5828149 0.231907,-0.6400323 -0.230061,-0.134947 -0.237705,0.2598843 -0.451157,0.4725159 -0.474366,0.4725159 -0.02313,0 0.02516,-0.1424527 0.107603,-0.3165758 0.199647,-0.4220895 0.123166,-0.6360562 -0.08771,-0.2456235 -0.151514,0.2804361 -0.603996,0.6178923 -0.695018,0.5183587 -0.02109,-0.022918 0.0065,-0.1324227 0.06051,-0.2433302 0.162878,-0.3327479 0.0065,-0.3412032 -0.264927,-0.014483 -0.262559,0.3142711 -0.384807,0.3062828 -0.384807,-0.025125 0,-0.2480106 -0.113967,-0.2405002 -0.261274,0.017182 -0.164904,0.2887385 -0.493675,0.2796575 -0.423971,-0.011732 0.0464,-0.1938951 0.03026,-0.2052862 -0.145158,-0.1026334 -0.108548,0.063496 -0.220798,0.1569844 -0.249468,0.2077362 -0.02982,0.052595 -1.016429,0.068462 -2.294128,0.036883 -1.233067,-0.030481 -2.738755,-0.055476 -3.345982,-0.055571 l -1.104045,-2.067e-4 0.04306,-0.3210324 0.0432,-0.3210317 -0.144513,0.3400933 c -0.175022,0.412006 -0.372684,0.3363497 -0.290814,-0.1113043 0.05644,-0.3085592 0.05426,-0.310645 -0.13195,-0.1262851 -0.10423,0.1030911 -0.189468,0.2471774 -0.189468,0.3201638 0,0.072987 -0.04567,0.1636247 -0.101653,0.2014125 -0.06989,0.0473 -0.08445,-0.087395 -0.04655,-0.4324806 l 0.0552,-0.501183 -0.176943,0.4127688 c -0.09731,0.227025 -0.159065,0.4470667 -0.137189,0.488986 0.02188,0.04191 -0.02371,0.049567 -0.101375,0.017026 -0.108281,-0.045439 -0.120462,-0.1187016 -0.05215,-0.3151145 0.116941,-0.3363073 0.113827,-0.6842254 -0.0065,-0.6036566 -0.08378,0.056549 -0.140504,-0.1604307 -0.103129,-0.3946451 0.0065,-0.046772 -0.02996,-0.055649 -0.08324,-0.019701 -0.05302,0.03594 -0.09677,0.1327819 -0.09677,0.2151814 0,0.2485731 -0.381638,1.0559431 -0.528214,1.1174317 -0.110041,0.046097 -0.117211,0.017227 -0.03695,-0.1466403 0.05506,-0.1122346 0.133858,-0.204067 0.175226,-0.204067 0.04138,0 0.07724,-0.058045 0.07944,-0.1289899 0.0021,-0.070954 0.02946,-0.3475554 0.06051,-0.6146919 0.03098,-0.2671366 0.02059,-0.5098585 -0.02291,-0.5393846 -0.04371,-0.029503 -0.104756,0.1487971 -0.135871,0.3962654 -0.03098,0.2474727 -0.15054,0.6295075 -0.265563,0.8489629 -0.263495,0.502738 -0.258818,0.4965856 -0.323577,0.4258038 -0.02974,-0.032566 0.02037,-0.2144398 0.111654,-0.4041725 0.09109,-0.1897282 0.178287,-0.4146214 0.193654,-0.4997556 0.25133,-1.3933249 0.278611,-1.6640241 0.213744,-2.1217646 -0.11044,-0.7792141 -0.134403,-0.864108 -0.308647,-1.0865109 -0.08906,-0.1136941 -0.13892,-0.2472243 -0.110985,-0.2967397 0.02815,-0.049895 2.471952,-0.082245 5.480632,-0.072589 4.666795,0.014994 5.441852,0.038786 5.515634,0.1693481 0.07332,0.1299337 0.09488,0.1261986 0.148235,-0.025799 0.08053,-0.2293194 0.289941,-0.227839 0.409567,0.00286 0.08824,0.1703507 0.1011,0.1695609 0.22511,-0.013877 0.127363,-0.1885325 0.137769,-0.1871406 0.33578,0.045258 l 0.204341,0.2397699 V 4.2632636 4.0181147 l 0.296616,0.303086 c 0.276646,0.2826734 0.293111,0.2874494 0.244798,0.070893 -0.06131,-0.2747917 -0.04531,-0.2784202 0.340974,-0.077538 0.303818,0.1579753 0.816549,0.9223835 0.816549,1.217386 0,0.090014 0.0392,0.1902396 0.08743,0.2227048 0.048,0.03247 0.07229,0.1887844 0.05396,0.3473807 -0.01839,0.1585931 1.01e-4,0.3476292 0.04109,0.4200789 0.139037,0.2461117 0.194433,-0.1708023 0.09715,-0.7318573 C 40.37414,5.2453284 40.220589,4.9092813 39.877308,4.4956913 39.771467,4.3682182 39.706657,4.2401647 39.733203,4.2111343 c 0.10977,-0.1201327 0.698807,0.4489511 0.961511,0.929105 0.253614,0.4634947 0.282552,0.6051561 0.284501,1.393099 7.94e-4,0.4824251 -0.02299,0.9467921 -0.05396,1.0319263 -0.03084,0.085134 -0.08528,0.2535176 -0.120999,0.3741878 -0.03571,0.1206621 -0.16746,0.2794333 -0.292873,0.3528134 -0.249211,0.1458303 -0.304842,0.4569875 -0.09718,0.5440825 0.07171,0.030186 0.24319,-0.073489 0.380641,-0.2303386 0.262776,-0.2998777 0.275693,-0.3024759 1.80395,-0.3635727 0.761121,-0.030446 0.984419,-0.1334965 1.28324,-0.5923047 0.313933,-0.4820139 0.311504,-1.526578 -0.0036,-2.097124 C 43.415109,4.7174558 43.186847,4.598864 42.077487,4.6173589 41.19603,4.6320486 40.662251,4.4951516 40.662251,4.2543625 c 0,-0.058651 -0.0424,-0.077936 -0.09434,-0.042853 -0.052,0.035083 -0.09435,0.018317 -0.09435,-0.037211 0,-0.055545 -0.216585,-0.1796405 -0.481303,-0.2757739 C 39.55755,3.7406679 38.828554,3.723403 32.465023,3.7202529 c -3.875264,-0.00198 -7.159005,0.022738 -7.297205,0.054818 -0.417121,0.096796 -0.636384,0.2701552 -0.883908,0.698853 -0.129661,0.2245833 -0.259802,0.4083332 -0.28917,0.4083332 -0.02916,0 -0.367462,-0.1651597 -0.751296,-0.3670214 C 22.859575,4.313376 22.523589,4.1497545 22.496833,4.1516346 22.469993,4.1536186 21.991091,3.9042235 21.432432,3.5976508 20.873759,3.2910792 20.299863,3.008519 20.157111,2.9697379 20.014301,2.9309603 19.897535,2.8550853 19.897535,2.8011314 c 0,-0.053953 -0.03898,-0.071715 -0.08675,-0.039461 -0.04764,0.032254 -0.144301,1.654e-4 -0.214616,-0.0713 C 19.470843,2.5629974 19.331102,2.5052367 19.048078,2.4638696 18.906584,2.4431656 18.765927,2.3833126 18.057046,2.0420188 17.849431,1.9420468 17.594604,1.852647 17.490769,1.8433593 17.386956,1.8340593 16.983442,1.7172748 16.594096,1.5838181 16.204772,1.4503641 15.780028,1.3271036 15.65028,1.3099228 15.520481,1.2927398 15.308106,1.2565408 15.178336,1.2294688 15.048675,1.2024148 14.814954,1.1568968 14.659234,1.1283519 14.503478,1.0998179 14.248629,1.0519469 14.092924,1.0219695 13.352021,0.87940162 13.104053,0.85276692 12.516019,0.85262502 c -0.348161,-8.74e-5 -0.659033,-0.046158 -0.690822,-0.1023758 -0.03171,-0.05622 -0.09566,-0.076681 -0.141851,-0.04544 -0.04625,0.031251 -0.351229,0.077218 -0.677766,0.1021897 -0.654574,0.050051 -1.223146,0.1224506 -1.584768,0.20181148 -0.129777,0.028473 -0.375971,0.076855 -0.547101,0.10747 C 8.254284,1.2271557 7.467256,1.4529563 7.243083,1.5841272 7.117073,1.6578582 7.003179,1.709496 6.989967,1.6988939 6.825438,1.5667853 5.5867986,2.3596564 5.234122,2.8228233 4.8903237,3.2743352 4.7332644,4.0116761 4.820864,4.7629345 4.864916,5.1407325 4.901816,5.5194909 4.902845,5.6046235 Z M 5.1468266,4.029106 c 0.021709,-0.1570389 0.079746,-0.2583132 0.1289727,-0.2250495 0.04923,0.033266 0.06358,0.1063392 0.031892,0.1624023 -0.084104,0.1487749 0.044314,0.6252577 0.1493639,0.5542642 0.049114,-0.03318 0.074492,-0.1993466 0.056387,-0.3692459 C 5.4953602,3.9815755 5.5601122,3.671954 5.657352,3.4634269 5.8604421,3.0279018 5.8687834,2.9891475 5.740848,3.0755943 5.687116,3.111906 5.671654,3.0699693 5.704396,2.9766663 5.735662,2.8875832 5.8307573,2.8271248 5.9156804,2.8423116 6.0006114,2.857496 6.0611866,2.8174117 6.0502564,2.7532277 6.0270054,2.6166694 6.327372,2.2970454 6.5101589,2.2638103 6.5795929,2.2512213 6.721367,2.1896203 6.825189,2.1269939 6.929014,2.0643629 7.047639,2.0133718 7.0888,2.0136433 7.12996,2.0139343 7.278614,1.9682903 7.419147,1.9122409 7.987001,1.6857518 8.461695,1.5572542 8.576274,1.5990116 8.642904,1.6232896 8.403613,1.7275427 8.044478,1.8306686 7.68534,1.9337894 7.285316,2.0925656 7.155539,2.183501 7.025768,2.27443 6.792154,2.4245176 6.6364199,2.5170162 6.3398717,2.693143 5.8188609,3.4301473 5.8953019,3.5653724 c 0.024395,0.043164 0.00625,0.078498 -0.040292,0.078498 -0.046561,0 -0.090873,0.1509186 -0.098466,0.3353755 C 5.7291317,4.6447681 5.5453484,5.0902185 5.2948086,5.0983417 5.1424009,5.1031863 5.0703231,4.5824807 5.1468295,4.0290915 Z m 0.021862,2.1896662 c 0.047703,0.082435 0.067594,0.1836989 0.044212,0.225053 -0.023389,0.041347 -0.00124,0.1030203 0.049005,0.1370309 0.050321,0.03401 0.1362808,-0.1198898 0.190985,-0.3420263 C 5.5076116,6.0167065 5.6187173,5.7747572 5.6998224,5.7011652 5.7809352,5.6275812 5.8292963,5.4921415 5.8073017,5.4002035 5.7790683,5.2822171 5.8306327,5.2330485 5.9824966,5.2330485 H 6.1976741 L 5.9948336,5.5444906 C 5.88328,5.7157827 5.7810059,5.9038506 5.7675772,5.9624204 5.7541734,6.0209848 5.715336,6.2082188 5.6813738,6.3784864 5.6473733,6.5487542 5.5404306,6.7711365 5.4437187,6.872673 5.346999,6.9742042 5.2678663,7.1019048 5.2678663,7.1564513 c 0,0.054541 -0.042474,0.099171 -0.094392,0.099171 -0.052154,0 -0.093742,-0.2655281 -0.092942,-0.5933574 7.938e-4,-0.4010163 0.029557,-0.5447808 0.088152,-0.4434954 z m -0.055696,2.5933429 c 0.095894,0.1215776 0.153108,0.6215531 0.064241,0.5615162 -0.053979,-0.036485 -0.098167,-0.1874253 -0.098167,-0.335425 0,-0.1479978 0.015258,-0.2497428 0.033906,-0.2260912 z M 5.2359698,8.1585615 c 0.026175,0.070937 0.026175,0.187035 0,0.2579804 -0.026175,0.070937 -0.047608,0.012875 -0.047608,-0.1289897 0,-0.1418958 0.021418,-0.1999358 0.047608,-0.1289907 z m 0.031877,1.4704943 c 0.050321,0.085134 0.091493,0.2012249 0.091493,0.2579802 0,0.056765 -0.041171,0.033535 -0.091493,-0.0516 -0.050321,-0.085135 -0.091496,-0.2012249 -0.091496,-0.257982 0,-0.056765 0.041172,-0.033543 0.091496,0.0516 z M 5.4665295,8.3649455 c 0.051623,-0.099314 0.065325,-0.1805877 0.030422,-0.1805877 -0.03491,0 -0.015055,-0.063773 0.044125,-0.1417095 C 5.6002341,7.9647124 5.621473,7.8234992 5.588263,7.728848 5.5550332,7.6341983 5.5649162,7.5641607 5.610226,7.5732026 5.8005236,7.6111756 5.9358675,7.5584336 5.8839145,7.4665192 5.8532302,7.412246 5.7551714,7.3956778 5.6659761,7.4297143 5.3924353,7.5341223 6.4010336,6.461437 6.7659488,6.2598477 6.954286,6.1557972 7.187165,6.0006235 7.283461,5.9150028 7.379751,5.8293838 7.475639,5.7721339 7.496533,5.7877729 c 0.02087,0.015642 0.281897,-0.049965 0.58,-0.1457915 0.298107,-0.095838 0.676715,-0.184911 0.841352,-0.1979459 0.164636,-0.01302 0.342582,-0.052915 0.395434,-0.088625 0.198855,-0.1343694 4.354818,-0.2768076 4.354818,-0.1492515 0,0.048831 -0.265446,0.092461 -0.589903,0.096939 -0.632871,0.00873 -1.263866,0.050207 -2.241639,0.1473343 -0.337433,0.033526 -0.787224,0.07643 -0.999578,0.095351 -0.212339,0.018931 -0.482024,0.067692 -0.5993,0.1083852 C 9.120426,5.6948585 8.933145,5.7431235 8.821515,5.7613954 8.709866,5.7796864 8.512359,5.8242684 8.382578,5.8604664 8.252807,5.8966834 8.019196,5.9503084 7.863459,5.979626 7.707722,6.008973 7.362074,6.1662049 7.095351,6.3290607 6.828631,6.4919167 6.5844076,6.6044834 6.5526354,6.5792078 6.5208528,6.5539268 6.515151,6.5631423 6.5400544,6.5996865 6.5648327,6.6362405 6.4577087,6.8247596 6.3020117,7.0186354 6.1463153,7.2125126 6.0406322,7.4095316 6.067158,7.4564602 6.0936748,7.5033881 6.0521403,7.5991717 5.9748645,7.6693011 5.8975667,7.7394244 5.8343247,7.88675 5.8343247,7.9966643 c 0,0.1247822 -0.040917,0.1721815 -0.1089819,0.1262134 -0.059936,-0.040508 -0.084565,-0.030446 -0.054728,0.02232 0.029833,0.052768 0.064009,0.3966083 0.075959,0.7640899 0.012581,0.3907544 0.091874,0.8221575 0.190754,1.0390979 0.2221463,0.4875015 0.74867,0.9841055 1.1405922,1.0757815 0.17257,0.04036 0.366856,0.120148 0.431746,0.177308 0.0649,0.05715 0.117983,0.07338 0.117983,0.03605 0,-0.03732 0.0819,-0.01993 0.182037,0.03865 0.198438,0.116097 0.59756,0.189276 1.464711,0.268504 0.308719,0.02821 0.584797,0.07809 0.613503,0.110832 0.07887,0.09 -1.507775,-0.0456 -1.859112,-0.158892 -0.168714,-0.0544 -0.306754,-0.07325 -0.306754,-0.04188 0,0.03138 -0.05925,0.0033 -0.131639,-0.06241 -0.07241,-0.06568 -0.167967,-0.111603 -0.212368,-0.102031 -0.169023,0.03649 -0.6942263,-0.143618 -0.6942263,-0.238069 0,-0.0544 -0.053092,-0.07772 -0.117983,-0.05185 -0.064903,0.02585 -0.250779,-0.06114 -0.4130834,-0.193324 -0.1623097,-0.132195 -0.3163369,-0.217136 -0.342288,-0.188766 -0.02595,0.02838 -0.071805,-0.01858 -0.101917,-0.104351 -0.030095,-0.08577 -0.00771,-0.187816 0.050117,-0.226782 0.067907,-0.04587 0.077948,-0.02325 0.028495,0.06425 -0.049056,0.08677 -0.039397,0.110102 0.026997,0.06524 C 5.8836967,10.36965 5.8395203,10.182487 5.6791833,9.8446058 5.4153625,9.2886458 5.3225462,8.6423148 5.4667018,8.3649397 Z m 0.6458011,0.241001 c 0.05619,-0.0994 0.1007795,-0.096523 0.2036363,0.01302 0.3152275,0.3359515 0.8234031,0.7004328 0.9765751,0.7004328 0.115479,0 0.14818,0.051807 0.106924,0.1693836 -0.04698,0.1338683 -0.03244,0.1448763 0.06936,0.052499 0.07086,-0.064292 0.147203,-0.096796 0.169667,-0.072243 0.08017,0.087638 0.990425,0.2040411 1.593536,0.2037633 0.685411,-3.175e-4 1.858701,-0.098212 2.925908,-0.2441268 0.389369,-0.053244 0.941504,-0.121993 1.227037,-0.1528188 0.444045,-0.047931 0.471355,-0.041754 0.18876,0.042827 -0.748415,0.2239766 -1.080786,0.2942074 -1.734421,0.3664971 -0.253133,0.027997 -0.507582,0.082885 -0.56543,0.1219782 -0.05782,0.039106 -0.765493,0.08041 -1.572513,0.091831 C 8.077703,9.9219533 7.645235,9.8398719 6.7184516,9.3328418 6.1304429,9.0111537 5.9831139,8.8344473 6.112329,8.6058616 Z M 6.2826349,3.4394318 C 6.7659091,2.3874133 9.083256,1.6866741 11.889992,1.7438387 c 1.230025,0.025056 1.576593,0.054801 2.250083,0.1931042 0.181677,0.037298 0.394045,0.080904 0.471937,0.096881 0.07779,0.01597 0.290217,0.062397 0.471915,0.1031915 0.181684,0.040776 0.403456,0.085593 0.492796,0.099572 0.08947,0.014026 0.191982,0.057717 0.228099,0.097197 0.03615,0.039478 0.146033,0.071784 0.244267,0.071784 0.09826,0 0.156055,0.039902 0.128578,0.088698 -0.02749,0.048779 0.04422,0.077893 0.159588,0.064699 0.115319,-0.01316 0.422111,0.040179 0.681694,0.1185727 0.259548,0.078412 0.556725,0.1649106 0.660378,0.1922436 0.103675,0.02734 0.201953,0.093977 0.218462,0.1481138 0.01666,0.054126 0.08675,0.074631 0.155953,0.045587 0.06917,-0.029062 0.154389,-0.00259 0.189168,0.059075 0.03476,0.061558 0.102867,0.085195 0.151144,0.052543 0.04815,-0.032652 0.08784,-0.00528 0.08784,0.060952 0,0.07316 -0.06473,0.09216 -0.165167,0.048476 C 18.081428,3.1821672 17.471575,3.0620127 16.688555,2.9637174 16.403073,2.9278727 16.139576,2.8790936 16.103074,2.8553173 16.013204,2.7967788 15.153839,2.6935665 14.51771,2.6649013 14.232191,2.6520263 13.977357,2.6311333 13.951393,2.6184583 13.787375,2.5382993 11.57103,2.6454693 10.83668,2.7690681 10.654997,2.7996264 10.378911,2.844218 10.223177,2.8681241 10.067443,2.8920213 9.83383,2.9375206 9.704061,2.9692124 9.574291,3.0009042 9.340678,3.0511972 9.184944,3.0809891 9.029201,3.1107515 8.731888,3.2190071 8.52424,3.3215075 8.31659,3.4240267 7.944948,3.5677375 7.698368,3.6408863 7.451785,3.7140465 7.250037,3.8220277 7.250037,3.8808666 c 0,0.058832 -0.02639,0.078109 -0.05869,0.042827 C 7.159057,3.888411 6.926876,3.9735454 6.6753662,4.1128792 6.4238519,4.2522286 6.1954231,4.3662315 6.1677411,4.3662315 c -0.112622,0 -0.039302,-0.5909366 0.1149922,-0.9268018 z M 6.6836258,4.5210222 C 6.943186,4.3772207 7.155554,4.2884905 7.155554,4.3238473 c 0,0.086781 -0.4030648,0.428652 -0.510633,0.4331087 C 6.597676,4.758936 6.5212391,4.834321 6.4750521,4.9245483 6.369305,5.1311461 6.211701,5.1377173 6.211701,4.9355633 c 0,-0.084191 0.2123675,-0.270706 0.4719248,-0.4145094 z M 6.6128606,9.7625185 C 6.833486,9.8823788 7.035235,9.984931 7.061192,9.9904092 c 0.02595,0.00545 0.13214,0.040681 0.235962,0.078239 0.992145,0.358812 3.383991,0.368557 4.813657,0.01961 0.052,-0.01273 0.243052,-0.05008 0.424743,-0.08313 0.390656,-0.071067 1.084081,-0.2287586 1.415775,-0.3219546 0.129792,-0.036476 0.363382,-0.088869 0.519109,-0.1164844 0.155749,-0.027599 0.8778,-0.171581 1.604579,-0.3199622 0.72675,-0.1483802 1.416946,-0.2739758 1.533741,-0.2790994 0.116664,-0.00519 0.212354,-0.034858 0.212354,-0.066074 0,-0.031207 0.09557,-0.061523 0.212382,-0.067346 0.116672,-0.00588 0.307934,-0.038328 0.424736,-0.072243 0.537117,-0.1558822 0.652137,-0.1820577 0.873066,-0.1986754 0.129806,-0.00973 0.257205,-0.046746 0.283155,-0.082175 0.08405,-0.1147953 0.660704,-0.2139683 0.660704,-0.113637 0,0.1046374 -1.214185,0.7104354 -1.3393,0.6682298 -0.04204,-0.014163 -0.07631,0.020635 -0.07631,0.077391 0,0.056756 -0.03193,0.095951 -0.07084,0.087123 -0.03884,-0.00873 -0.283155,0.087037 -0.542746,0.2130539 -0.458286,0.2225093 -0.556143,0.2675536 -1.113456,0.5125196 -0.145189,0.063816 -0.346938,0.1160407 -0.448315,0.1160407 -0.101522,0 -0.184338,0.0387 -0.184338,0.08599 0,0.0473 -0.05302,0.09101 -0.118024,0.09715 -0.156098,0.01473 -0.366139,0.07854 -0.553117,0.167948 -0.08365,0.03998 -0.25525,0.08472 -0.381514,0.09944 -0.126279,0.01469 -0.270558,0.05447 -0.320676,0.08833 -0.111937,0.07556 -0.817937,0.233196 -0.915553,0.204385 -0.03884,-0.01145 -0.07084,0.01781 -0.07084,0.0651 0,0.0473 -0.05302,0.09207 -0.117886,0.09949 -0.650937,0.07449 -1.004872,0.128231 -1.203422,0.182714 -0.35696,0.09796 -3.077409,0.123853 -3.574838,0.03403 C 9.003882,11.123065 8.637546,11.056661 8.4299,11.018877 8.222252,10.981077 8.027546,10.933544 7.997223,10.913253 7.966913,10.892965 7.797005,10.848554 7.619679,10.814554 7.008432,10.697397 6.2118436,10.04812 6.2118436,9.6670606 c 0,-0.079511 0.1406866,-0.046028 0.4011363,0.095465 z M 6.4382213,7.4705977 c 0.1025536,-0.093062 0.2081623,-0.073177 0.4719257,0.088797 0.186899,0.1147807 0.339816,0.1805575 0.339816,0.1462018 0,-0.034357 0.0531,-0.01674 0.117982,0.039115 0.105138,0.090514 0.523015,0.2410833 0.778679,0.2805374 0.05191,0.00805 0.243044,0.049393 0.424734,0.091974 0.621225,0.1455518 2.433924,0.2187874 3.223992,0.1302485 0.189866,-0.021275 0.848214,-0.07053 1.462968,-0.1094295 1.237772,-0.078351 1.79187,-0.1179155 2.911072,-0.20788 1.751695,-0.1408083 2.085505,-0.1746231 2.2554,-0.2284835 0.149843,-0.047507 0.158868,-0.033266 0.05556,0.087667 -0.06786,0.079415 -0.190825,0.1483974 -0.273271,0.1532919 -0.177625,0.010589 -0.714858,0.1054383 -1.046596,0.1848694 -0.129668,0.031095 -0.427093,0.084459 -0.660705,0.1186448 -0.233583,0.034166 -0.467195,0.069068 -0.519123,0.077564 -0.05193,0.00856 -0.115588,0.044799 -0.141654,0.080687 -0.02582,0.035897 -0.238311,0.096538 -0.471915,0.1347848 -0.233598,0.038233 -0.573387,0.093849 -0.755092,0.1235813 -0.181684,0.029736 -0.479,0.070158 -0.660676,0.089827 -0.181691,0.019674 -0.330349,0.04274 -0.330349,0.051236 0,0.029737 -0.745885,0.1515642 -1.604564,0.2621185 C 10.496039,9.2616968 8.234831,9.2946387 7.957834,9.1250771 7.905924,9.0933071 7.810355,9.0543821 7.745469,9.0385931 7.680569,9.0228211 7.573672,8.9971591 7.507898,8.9815771 7.25851,8.9225112 6.71981,8.4949371 6.5170695,8.195125 6.2734087,7.8348046 6.2521425,7.6394231 6.4382025,7.4705969 Z M 6.778035,5.191774 c 0.207648,-0.1798063 0.37754,-0.2974361 0.37754,-0.2613993 0,0.036026 0.142055,-0.052924 0.315665,-0.1977141 0.173612,-0.1447784 0.388089,-0.2632345 0.476614,-0.2632345 0.08853,0 0.286262,-0.07085 0.43942,-0.1574398 0.153158,-0.086595 0.278469,-0.1333968 0.278469,-0.104022 0,0.029373 0.159276,-0.013592 0.353945,-0.095508 0.19467,-0.081899 0.481374,-0.1717325 0.637101,-0.1996164 0.155734,-0.027902 0.537996,-0.099486 0.849472,-0.1591173 1.635518,-0.3131185 3.468109,-0.3303574 5.423691,-0.051037 0.235496,0.033638 0.555619,0.077097 0.711368,0.096537 0.155734,0.019449 0.410554,0.063072 0.56631,0.096925 0.666981,0.1449671 0.765892,0.1662213 0.971191,0.2087036 0.118831,0.024606 0.543589,0.1438934 0.943852,0.2651051 0.400249,0.1212056 0.801166,0.2367624 0.890928,0.256775 0.08961,0.020029 0.238412,0.083871 0.330363,0.1419243 0.115588,0.072987 -0.516927,0.088268 -2.050915,0.049532 C 13.879611,4.706769 10.063466,4.7571229 9.214925,4.9379632 9.094559,4.9635908 8.847432,5.011651 8.665743,5.0447176 8.151254,5.1383507 7.192037,5.4824879 6.835799,5.7012441 6.2672214,6.0503959 6.2242396,5.6713258 6.7780453,5.1917725 Z m 0.401139,1.831494 c 0.168712,0.090514 0.332739,0.2070269 0.364497,0.2588887 0.03177,0.051868 0.07423,0.085524 0.09439,0.074821 0.02014,-0.010729 0.270243,0.00701 0.555759,0.039288 1.070602,0.1211916 1.874052,0.180444 2.999101,0.2211742 0.637213,0.023066 1.197043,0.067952 1.244077,0.099728 0.04713,0.03177 0.108511,0.016915 0.13689,-0.033085 0.05818,-0.1030203 1.643103,-0.1307494 1.699221,-0.029736 0.07632,0.1373603 -4.849636,0.2262616 -5.418578,0.097798 C 8.724759,7.7228239 8.427438,7.6632899 8.193833,7.6198207 7.960231,7.5763367 7.652742,7.4756765 7.510528,7.396102 7.368318,7.316522 7.230723,7.2510942 7.204766,7.2506936 7.050559,7.2484436 6.872438,7.1109875 6.872438,6.9944965 c 0,-0.1064257 0.06642,-0.1002017 0.306754,0.028759 z M 7.846797,6.4415231 c 0.560634,-0.1626058 1.1971,-0.3208396 1.526844,-0.379584 0.155727,-0.027729 0.389332,-0.07887 0.519116,-0.1136083 0.577736,-0.1546442 3.20006,-0.2532486 7.027478,-0.2642442 3.945893,-0.0113 6.752795,0.1700668 6.752795,0.4364204 0,0.046772 -0.180506,0.1178298 -0.401143,0.1578843 -0.220615,0.040067 -0.464846,0.085091 -0.54271,0.1001004 -0.653126,0.1257702 -1.04629,0.1871821 -1.368603,0.213764 -0.20764,0.017132 -0.377535,0.03889 -0.377535,0.048364 0,0.00945 -0.297315,0.028914 -0.66069,0.043242 -0.799282,0.031467 -2.279705,0.1449247 -2.925966,0.2242415 -0.259555,0.031865 -0.769231,0.077278 -1.132613,0.1009594 -0.363367,0.023662 -1.085412,0.077227 -1.604542,0.1190019 C 13.102395,7.2533773 9.245028,7.1774325 8.476971,7.0063443 8.399101,6.9890063 8.157506,6.9396383 7.940086,6.8966568 7.396308,6.7891584 7.354328,6.5843559 7.846806,6.4415205 Z m 0.01628,-2.469085 C 7.993079,3.907679 8.09944,3.8947271 8.09944,3.9436361 c 0,0.08568 -0.387178,0.2400683 -0.444607,0.1772819 -0.01544,-0.016896 0.07824,-0.083715 0.208244,-0.1484849 z M 8.388876,3.7944296 c 0.05537,-0.037402 0.125779,-0.040551 0.156491,-0.00701 0.03071,0.033569 0.123437,0.00562 0.206088,-0.062086 0.125196,-0.1025901 0.130827,-0.099257 0.03376,0.019934 -0.06407,0.078663 -0.202114,0.1499359 -0.30675,0.1583645 -0.214092,0.017251 -0.236426,-0.01002 -0.08959,-0.109215 z m 0.721137,-0.195507 c 0.134523,-0.056003 0.145353,-0.044142 0.05284,0.057777 -0.06402,0.07053 -0.140127,0.1022331 -0.169194,0.070452 -0.02905,-0.031761 0.02335,-0.08947 0.116425,-0.1282309 z m 0.43482,-0.1511419 c 0.119967,-0.070192 0.385361,-0.147021 0.589765,-0.1707314 0.204412,-0.023707 0.494767,-0.073705 0.64525,-0.111089 0.185182,-0.046019 0.253213,-0.031925 0.210514,0.043623 -0.03462,0.061368 -0.13657,0.1131507 -0.226405,0.1150395 -0.210834,0.00459 -0.809959,0.082461 -0.871204,0.1134502 -0.02589,0.01316 -0.08351,0.01674 -0.127915,0.00805 -0.04436,-0.00856 -0.140992,0.038847 -0.214652,0.1056807 -0.0737,0.066818 -0.154068,0.099486 -0.178687,0.072572 -0.02465,-0.026924 0.05338,-0.1063824 0.173334,-0.1765663 z m 0.749056,8.2021743 c 0.11681,0.01416 0.403499,0.03511 0.637104,0.04656 0.373019,0.01829 0.390576,0.0288 0.144127,0.08652 -0.334189,0.07827 -0.993592,0.0227 -0.993592,-0.08373 0,-0.0413 0.09555,-0.06353 0.212361,-0.04936 z m 1.01053,-8.5458545 c 0.232296,-0.071326 0.366735,-0.028655 0.263918,0.083759 -0.03026,0.032964 -0.154032,0.043623 -0.2753,0.023662 L 11.072574,3.1752782 Z M 11.83322,1.167264 c 0.0809,0 0.120388,0.047187 0.08791,0.1048795 -0.03258,0.057691 -0.09887,0.07817 -0.147159,0.0455 -0.130926,-0.088454 -0.106512,-0.1503806 0.05927,-0.1503806 z m 0.01266,1.8495719 c 0.09389,-0.00441 0.245081,-0.023455 0.335912,-0.042463 0.09083,-0.019034 0.165189,0.00259 0.165189,0.047776 0,0.1142806 -0.563452,0.1943502 -0.623235,0.088569 -0.02684,-0.047291 0.02822,-0.089542 0.122177,-0.093892 z m 0.406701,8.5891731 c 0.129705,0 0.182877,0.02341 0.11809,0.05204 -0.06502,0.02865 -0.171073,0.02865 -0.235954,0 -0.06487,-0.02863 -0.01142,-0.05204 0.11809,-0.05204 z M 13.080875,1.2988847 c 0.425463,0.020574 0.803573,0.070236 0.840308,0.1103598 0.03673,0.040118 -0.291882,0.044168 -0.730175,0.00901 -1.033142,-0.082945 -1.111463,-0.1677708 -0.110046,-0.1193447 z m -0.45729,1.6504885 c 0.100206,0.00831 0.161422,0.051798 0.136025,0.096767 -0.06466,0.1144236 -0.318247,0.1024615 -0.318247,-0.014994 0,-0.053226 0.08211,-0.090013 0.182229,-0.081769 z m 0.378219,0.027729 c 0.116664,-0.078879 0.666559,-0.031311 0.666559,0.057665 0,0.038129 -0.169887,0.065901 -0.377535,0.061696 -0.397434,-0.00805 -0.432416,-0.022476 -0.289024,-0.1193747 z m 0.355746,8.4644617 c 0.134671,-0.056 0.145363,-0.04414 0.0528,0.05778 -0.06422,0.07053 -0.140207,0.102233 -0.169269,0.07045 -0.02895,-0.03176 0.02335,-0.08947 0.11654,-0.128231 z m 0.377535,-0.103192 c 0.134672,-0.056 0.145348,-0.04414 0.0528,0.05778 -0.06422,0.07053 -0.140214,0.102218 -0.169262,0.07045 -0.02895,-0.03176 0.02327,-0.08947 0.116395,-0.12823 z m 0.310828,-8.2896938 c 0.181676,0 0.256027,0.021214 0.165174,0.047187 -0.09081,0.025956 -0.23951,0.025956 -0.330356,0 -0.09082,-0.025956 -0.01666,-0.047187 0.165182,-0.047187 z m -0.207866,2.1044056 c 0.04124,-0.027997 0.137036,-0.00813 0.212368,0.043926 0.107071,0.074017 0.09055,0.09515 -0.07522,0.096381 -0.218354,0.00156 -0.269555,-0.050795 -0.137065,-0.1403072 z m 0.740502,-3.6374379 c 0.266995,0.034581 0.58554,0.1107463 0.707892,0.1692103 0.208244,0.099529 0.205313,0.1025903 -0.04589,0.047975 C 15.092948,1.7007332 14.79564,1.6481122 14.579839,1.6159029 14.007514,1.5304399 14.006372,1.4415266 14.579125,1.5156591 Z m -0.378655,9.6920731 c 0.03287,0.03583 0.136309,0.02026 0.230245,-0.03467 0.11153,-0.06517 0.190935,-0.0639 0.229118,0.0037 0.03222,0.0569 -0.0036,0.103478 -0.08093,0.103478 -0.07663,0 -0.20663,0.02819 -0.288733,0.06264 -0.08797,0.03692 -0.149291,0.0086 -0.149291,-0.06879 0,-0.07229 0.02698,-0.102118 0.05971,-0.06626 z m 0.412322,-3.6262175 c 0.129806,0 0.182869,0.023413 0.1179,0.052058 -0.06495,0.028629 -0.171072,0.028629 -0.235968,0 -0.06495,-0.028646 -0.01076,-0.052058 0.118017,-0.052058 z m 0.06655,-2.4346833 c 0.134402,-0.056004 0.145362,-0.044142 0.0528,0.057777 -0.064,0.07053 -0.140214,0.1022332 -0.16924,0.070452 -0.02895,-0.031761 0.02327,-0.08947 0.116395,-0.1282311 z m 0.271503,5.9350868 c 0.110039,0.005 0.132228,0.02941 0.05709,0.06234 -0.06807,0.02981 -0.149545,0.02615 -0.180905,-0.0081 -0.03135,-0.03429 0.02444,-0.05868 0.123973,-0.0542 z m 0.09217,-3.6198864 c 0.0808,0 0.120861,0.046434 0.08879,0.1031915 -0.03207,0.056765 -0.0984,0.1031917 -0.147167,0.1031917 -0.0488,0 -0.08879,-0.046435 -0.08879,-0.1031917 0,-0.056765 0.06618,-0.1031915 0.147166,-0.1031915 z m 0.04167,-2.3218338 c 0.05193,0.035083 0.09434,0.084261 0.09434,0.1092729 0,0.02503 -0.0424,0.045518 -0.09434,0.045518 -0.052,0 -0.09434,-0.049177 -0.09434,-0.1092869 0,-0.060096 0.0424,-0.080583 0.09434,-0.0455 z m 0.424794,5.7541342 c 0.181655,-0.06095 0.330284,-0.07454 0.330284,-0.03019 0,0.08147 -0.569183,0.240885 -0.628501,0.176032 -0.0176,-0.01926 0.116526,-0.08489 0.298217,-0.145846 z M 15.372864,7.4620186 c 0.05506,0 0.07378,0.046434 0.04167,0.1031915 -0.03207,0.056765 -0.07717,0.1031917 -0.100024,0.1031917 -0.02284,0 -0.0416,-0.046435 -0.0416,-0.1031917 0,-0.056765 0.04509,-0.1031915 0.09989,-0.1031915 z m 0.615802,-2.2620919 c 0.110032,0.00484 0.132366,0.029416 0.05702,0.062337 -0.06807,0.029806 -0.14953,0.026154 -0.180883,-0.00813 -0.03135,-0.034287 0.02451,-0.058677 0.12385,-0.054204 z m 0.706313,5.3020303 c 0.05557,-0.03742 0.120875,-0.04589 0.145647,-0.01883 0.02465,0.02705 -0.02036,0.07668 -0.100562,0.110288 -0.166309,0.06979 -0.195575,0.0103 -0.04509,-0.09144 z m 0.41846,-8.341874 c 0.312457,0.072572 0.548404,0.2477953 0.325635,0.2418419 -0.07522,-0.00198 -0.243059,-0.072044 -0.372822,-0.1556269 L 16.830284,2.0943229 Z m -0.05389,1.2020643 c 0.100023,0.00831 0.162585,0.049783 0.138482,0.092275 -0.024,0.042498 -0.106104,0.051106 -0.182207,0.019129 -0.192186,-0.080609 -0.173102,-0.1292614 0.04364,-0.1114187 z m 1.841471,-0.027833 c 0.07499,0 0.160672,0.04364 0.190833,0.096939 0.03011,0.05333 -0.03113,0.08987 -0.136039,0.081232 -0.21554,-0.017727 -0.264879,-0.1781808 -0.05484,-0.1781808 z m 0.342203,6.0325245 c 0.05556,-0.037402 0.120999,-0.04589 0.145647,-0.018825 0.02466,0.027054 -0.02058,0.076681 -0.100693,0.1102886 -0.166316,0.069786 -0.195568,0.010306 -0.04509,-0.091444 z m 1.437172,-5.0455575 c 0.09311,0.03876 0.145479,0.096452 0.116533,0.1282162 -0.02909,0.031761 -0.105158,6.75e-5 -0.169247,-0.070452 -0.09258,-0.101918 -0.08175,-0.1137658 0.0528,-0.057777 z m 3.653371,2.7795619 c 0.052,-0.035083 0.09433,0.024641 0.09433,0.1327102 0,0.253148 0.288761,0.5380453 0.545349,0.5380453 0.11721,0 0.302808,-0.1472158 0.447799,-0.3550309 0.148003,-0.2121308 0.301366,-0.3325151 0.381048,-0.2990871 0.215807,0.090529 0.367776,-0.5435989 0.33429,-1.3949738 -0.0081,-0.1716736 -0.05127,-0.2257494 -0.151137,-0.183827 -0.09989,0.041884 -0.141211,-0.00813 -0.140214,-0.1695452 7.94e-4,-0.185656 0.01868,-0.1996779 0.09299,-0.074146 0.07822,0.13228 0.09176,0.1285311 0.09299,-0.0258 7.94e-4,-0.099314 -0.03775,-0.1805865 -0.08568,-0.1805865 -0.04786,0 -0.21455,-0.1393055 -0.370268,-0.3095776 -0.354169,-0.3872278 -0.522928,-0.3887652 -0.871271,-0.00787 -0.151733,0.1659038 -0.275889,0.255724 -0.275889,0.1996027 0,-0.214662 0.204746,-0.5049715 0.456547,-0.6473285 0.386337,-0.2184204 0.977577,0.086895 1.217155,0.6284971 0.197522,0.4466425 0.207668,1.4189402 0.02283,2.2005969 -0.06051,0.255402 -0.119247,0.524088 -0.130614,0.5970725 -0.01085,0.072987 -0.159523,0.2935108 -0.329068,0.4900544 -0.251797,0.2918744 -0.35446,0.3453731 -0.560282,0.2919963 -0.339207,-0.087968 -0.57082,-0.3236626 -0.731702,-0.7446793 -0.157865,-0.4131254 -0.168563,-0.5987814 -0.0392,-0.6860442 z m 0.452841,-0.8442976 c 0.129125,-0.092132 0.137488,-0.1410806 0.04276,-0.2491735 -0.193945,-0.2211115 -0.137187,-0.270542 0.234929,-0.2044176 0.398002,0.070729 0.576101,0.420752 0.214106,0.420752 -0.110982,0 -0.287679,0.050207 -0.392539,0.1115613 -0.237998,0.139263 -0.316865,0.076664 -0.09907,-0.078706 z m 1.158629,-0.079753 c 0.06342,0.042853 0.0021,0.5628804 -0.06655,0.5628804 -0.02088,0 -0.02829,-0.1361006 -0.01664,-0.3024396 0.01085,-0.166338 0.04902,-0.2835386 0.08338,-0.2604408 z m 1.078487,2.0697696 c 0.07461,-0.1076844 0.115051,-0.2321769 0.08973,-0.2766502 -0.02508,-0.04447 0.0037,-0.1145376 0.06509,-0.1557213 0.07932,-0.053615 0.09109,-0.00441 0.04197,0.1734576 -0.03789,0.1365732 -0.07294,0.3043656 -0.0778,0.3728667 -0.0081,0.1308497 -0.26277,0.2843321 -0.257585,0.155992 0.0021,-0.040776 0.064,-0.1622602 0.138475,-0.2699448 z M 41.300131,5.663919 c 0.09122,-0.099585 1.180285,-0.065019 1.557216,0.049437 0.395674,0.120133 0.730861,0.4550897 0.730861,0.7303461 0,0.1989071 -0.36136,0.5254627 -0.487291,0.440364 -0.04349,-0.029347 -0.07904,-0.01515 -0.07904,0.031605 0,0.046746 -0.159277,0.083975 -0.353949,0.082763 -0.194668,-0.00138 -0.555692,0.024606 -0.802273,0.057405 L 41.417326,7.115451 V 6.7462942 c 0,-0.2030349 -0.03855,-0.5162727 -0.08568,-0.6960817 -0.04727,-0.17981 -0.06131,-0.3536404 -0.03135,-0.3862892 z m -0.0081,1.9270919 c 0.06982,-0.189148 0.262166,-0.1575038 0.45443,0.074761 0.165108,0.1994556 0.16143,0.2034572 -0.174141,0.1896652 -0.346699,-0.014311 -0.365921,-0.032393 -0.280289,-0.2644285 z m 0.80499,-0.1365731 c 0.06786,-0.00415 0.28312,-0.022667 0.478184,-0.041079 0.250537,-0.023662 0.384228,0.016412 0.455451,0.1365729 0.09298,0.156912 0.09704,0.1567085 0.05229,-0.00259 -0.03411,-0.1212921 0.03193,-0.2033196 0.221581,-0.2756516 0.327761,-0.1249112 0.454221,0.074103 0.198951,0.3130803 -0.27509,0.2575089 -0.539118,0.2822922 -0.708123,0.066481 -0.0892,-0.1139224 -0.203351,-0.165331 -0.268856,-0.1210916 -0.162063,0.1095164 -0.446802,0.119761 -0.504238,0.018161 -0.02676,-0.047447 0.0065,-0.089685 0.07485,-0.093849 z m 0.03695,0.325302 c 0.110033,0.00502 0.132366,0.029416 0.05717,0.062345 -0.06807,0.029806 -0.149566,0.026154 -0.180927,-0.00813 -0.03135,-0.034296 0.0245,-0.058694 0.123981,-0.054195 z M 26.882893,5.6019613 c 0,0.1149244 0.05906,0.2089616 0.131143,0.2089616 0.174898,0 0.09501,-0.7046214 -0.108124,-0.954532 -0.08081,-0.099329 -0.117494,-0.180585 -0.0819,-0.180585 0.03586,0 0.01979,-0.092876 -0.03593,-0.2063867 -0.206126,-0.4210576 -0.262871,-0.1877367 -0.08731,0.3585977 0.09989,0.3107386 0.181661,0.6590131 0.181661,0.7739444 z M 29.15582,4.6324695 c 0.566825,0.00476 1.030581,-0.029961 1.030581,-0.077175 0,-0.09711 -0.0704,-0.1042506 -0.99106,-0.1003157 -1.122664,0.00476 -1.213438,0.012017 -1.140664,0.091616 0.03869,0.042454 0.534352,0.081085 1.101143,0.085878 z m 0.818205,2.3119913 c 0.376365,9.525e-4 0.684292,0.038709 0.684292,0.084044 0,0.045353 -0.148434,0.063531 -0.329861,0.040361 -0.181467,-0.02317 -0.404453,-0.00805 -0.495525,0.033422 -0.138221,0.063029 -0.121407,0.089413 0.1011,0.1591943 0.445902,0.1398357 1.511101,0.1480939 1.552572,0.012017 0.03491,-0.1149813 -0.200768,-0.1674375 -0.568711,-0.1265142 -0.09082,0.010157 -0.165166,-0.035853 -0.165166,-0.1021474 0,-0.078368 0.131974,-0.1067535 0.377534,-0.081146 0.207634,0.021638 0.377528,0.013306 0.377528,-0.018627 0,-0.031891 0.085,-0.058019 0.188797,-0.058019 0.103814,0 0.188761,0.028343 0.188761,0.063011 0,0.034668 0.318551,0.072001 0.70789,0.082989 0.429535,0.012017 0.707898,-0.021344 0.707898,-0.085117 0,-0.057803 -0.180504,-0.1093586 -0.401164,-0.1145524 -0.220609,-0.00528 -0.719695,-0.022918 -1.109006,-0.039409 -0.879115,-0.037186 -2.343203,-0.070781 -2.59561,-0.059568 -0.156985,0.00701 -0.164925,0.025212 -0.04713,0.1084287 0.0778,0.055017 0.449514,0.1007448 0.82585,0.1016177 z m -0.731483,1.3430835 c 0.052,0 0.09434,-0.095623 0.09434,-0.2124758 0,-0.1168564 -0.0424,-0.1837732 -0.09434,-0.1486977 -0.052,0.035083 -0.09433,0.1306915 -0.09433,0.2124766 0,0.081786 0.0424,0.1486969 0.09433,0.1486969 z m 1.746137,-3.5864837 c 0.158215,0.033067 0.23596,0.00286 0.23596,-0.091172 0,-0.081059 -0.09975,-0.1404784 -0.23596,-0.1404784 -0.1298,0 -0.235969,0.041018 -0.235969,0.091172 0,0.050137 0.106251,0.1133507 0.235969,0.1404787 z m 2.973138,2.3481726 c 0.052,0 0.09434,-0.046435 0.09434,-0.1031918 0,-0.056756 -0.0424,-0.1031914 -0.09434,-0.1031914 -0.05193,0 -0.09434,0.046434 -0.09434,0.1031914 0,0.056765 0.0424,0.1031918 0.09434,0.1031918 z m 1.254951,-0.6366169 c 0.06742,0.061056 0.205335,0.113837 0.306763,0.1173141 0.101645,0.00355 0.704712,0.025186 1.340646,0.048251 0.669293,0.024278 1.156206,0.00198 1.156206,-0.053079 0,-0.052266 -0.03193,-0.095422 -0.07084,-0.095923 -0.197683,-0.00259 -2.264825,-0.080012 -2.409838,-0.090328 -0.151384,-0.010729 -0.155173,-0.039089 -0.03796,-0.2834177 0.1294,-0.2701144 0.135464,-0.2714037 1.206426,-0.2599113 0.591984,0.00632 1.224978,0.016965 1.406692,0.023532 0.655788,0.023826 0.901922,-0.0077 0.770683,-0.098598 -0.117747,-0.08163 -0.649539,-0.1166133 -2.375249,-0.1562942 -0.874694,-0.020116 -1.415759,0.1739379 -1.415759,0.5077481 0,0.1263275 0.05527,0.2796429 0.122351,0.3406947 z m 3.287371,0.078965 c 0.446939,-0.078135 0.743252,-0.2289738 0.743252,-0.3783388 0,-0.064932 -0.07309,-0.060442 -0.197046,0.012017 -0.190709,0.1115909 -0.575379,0.2201648 -0.817586,0.2307746 -0.06495,0.00285 -0.118034,0.049809 -0.118034,0.1043363 0,0.058435 0.160026,0.071196 0.389377,0.031121 z m 1.409541,-0.267884 c 0.0488,0 0.08879,-0.092876 0.08879,-0.2063866 0,-0.2276478 -0.148542,-0.2810306 -0.215357,-0.077391 -0.05127,0.1560899 0.0065,0.2837802 0.126547,0.2837802 z"
       style="fill:#302c28;stroke-width:0.0986901"
       id="path505" />
  </g>
</svg>
